<?xml version="1.0" encoding="UTF-8"?>
<!-- Created with Inkscape (http://www.inkscape.org/) -->
<svg width="60.861mm" height="113.38mm" version="1.1" viewBox="0 0 60.861 113.38" xml:space="preserve" xmlns="http://www.w3.org/2000/svg"><g transform="translate(-72.639 -120.02)"><g transform="translate(-4.4449 32.933)"><path d="m77.276 190.23v-10.054c1.1761-0.38478 3.6494 0.83573 3.8308-0.75707 2.2215-1.3442 5.2219-2.4449 1.0026-3.0439-2.3261 0.14671-1.553-5.297-3.841-2.147-1.6358 2.2018-0.79159-1.3041-0.99252-2.4046v-64.32c1.9535-0.58503 2.6477 0.86399 3.2561 2.4515 0.62246 2.403 1.5221 1.7806 2.5328-0.055 0.97584-1.2725 1.7174-3.0388 3.6198-2.3577 1.0782-0.16188 4.2583 0.60263 3.9007-0.19209-2.2057-2.2163-5.4353-4.4361-2.8916-7.8307 0.88449-2.9272-3.7195 0.32559-5.6168 0.65359-1.6001-0.43578-3.2007-1.173-4.801-1.724v-9.7992c2.0182 0.8727 4.0597 1.3755 2.8536 2.7921 0.80078 1.2422-0.46986 3.2624 1.6311 1.7061 5.8716 1.6502 11.652 3.6071 17.466 5.4477 1.8035 5.4065 3.4944 10.871 5.3928 16.23 4.2543-4.4424 8.1421-9.3586 12.21-14.026h19.369c-3.5344-4.0423-7.08-8.0788-10.457-12.254 0.64583-1.5586 5.8518-1.6913 5.4871-0.53711-1.7428 1.2314-3.6583 1.3028-0.75695 3.0126 0.69853 3.6712 2.4743 1.5992 4.8833 1.5029-2.0291-1.8178 2.4306-4.1513-1.7024-3.853-2.4992-2.0119 1.3447-1.0713 2.5892-1.2773 2.3314-0.70931 1.3386 1.9056 1.5352 3.3311v109.56h-60.501c1e-6 -3.3514 2e-6 -6.7028 3e-6 -10.054zm11.024-8.6431c0.90236-1.2616-1.3163 1.2828 0 0zm36.752-1.0541c-2.7566-6.0827-8.5621-10.515-9.8516-17.29-0.8096-2.5285-1.8439-3.6379-0.39492-0.55511 0.299 4.3809 4.3449 8.3183 5.3629 11.459-0.80897 1.4502 4.1956 2.7872 2.1717 4.7227-2.2408 1.99 3.8813 1.4037 2.712 1.6633zm4.4347-0.78612c0.85784-2.3034 0.54959-7.5292-1.5683-8.8311-1.7921 1.553-3.5255 3.3108-1.575 5.4068 1.2281 2.3598 1.7742 3.0856 2.6358 4.0298l0.42651-0.0967zm-38.987-1.7758c-0.61528 0.12832-0.17135 1.1381 0 0zm5.0598-3.2191c2.146-3.871-1.8374 2.5403 0 0zm-2.2595-4.983c-0.83619 1.2879-0.87514 3.2822 0 0zm4.6135 0.88195c0.4325-1.252-0.83865 1.2658 0 0zm24.616-2.4506c-0.9773-2.0624-1.9442-3.5048-0.41902-0.4863 0.88263 1.9187 2.4545 4.568 0.68585 1.0228zm-22.447-1.2979c0.96348-1.5714 2.145-4.0804 0.41122-1.0812-1.039 1.5918-3.5336 6.4753-1.0079 2.1214l0.28805-0.49954zm-3.5332-3.1749c1.3022-1.7475 1.6426-2.8527 0.12304-0.52739-1.5051 1.724-4.1333 6.9883-1.4118 2.4784 0.41877-0.65738 0.84763-1.3084 1.2888-1.951zm5.686-0.30853c0.90235-1.2616-1.3163 1.2828 0 0zm18.792-2.3921c-0.87728-3.303 7.145-3.6668 1.5811-4.9235-2.5647 0.32352-1.4768-5.1141-4.0537-2.4011-3.2833 0.95081-0.12849 4.1709 0.18317 6.6154 0.01 1.2279 2.8003 3.3964 2.2894 0.70926zm-27.876-1.0464c-1.9341-4.3498 9.7263-4.9805 2.7497-6.6105-1.5184-0.51814-3.454-0.64429-3.3486-2.6883-0.54063-0.8727-0.3034-4.318-1.6254-2.6066-1.318 1.0019-2.4568 2.5283-3.8829 3.2135-1.9208 0.20206-7.5929-1.5537-5.3411 1.0482 3.8721 2.4795 0.97652 5.2888-1.0309 7.8316 2.5076-0.17558 5.1304-1.1214 7.5661-1.0774 1.6619 0.66857 5.7814 5.2972 4.9131 0.88947zm5.7553 0.14825c0.70472-1.8199 0.96473-5.2204 0.15928-1.3664-0.01186 0.3222-1.0565 3.2394-0.15928 1.3664zm6.2324-2.8591c0.76614-1.4692 1.7003-4.1599 0.30966-1.0557-1.0041 1.9647-2.6069 5.93-0.5664 1.6036zm8.1833 2.2247c-0.85237-1.365-5.3183-8.0604-2.5541-3.3754 0.59475 0.76079 2.2948 3.6042 2.5541 3.3754zm-13.523-4.1451c-0.27487 0.011 0.1628 1.5611 0 0zm0.17704-1.4078c-0.30268-0.20506 0.21878 1.4503 0 0zm7.2513-0.1256c3.4832 0.16601-2.9575 0.0947 0 0zm9.2285-0.57009c-0.64265-0.80723 0.47892 1.3015 0 0zm-16.723-1.5786c-1.3735-0.75287-5.8877-3.9382-2.4649-1.3297 2.258 0.22031 3.7296 5.3492 2.4649 1.3297zm17.319-0.9482c-1.1604-1.8996 0.7614 1.8774 0 0zm-1.427-2.3372c-1.391-1.4475-2.0836-5.8552-1.2565-1.7565 0.15486 0.18214 1.4819 2.5368 1.2565 1.7565zm-21.063-1.3397c-1.526-2.9713-1.4804-0.78576 0 0zm19.872-3.4228c-0.30607-0.0569 0.18522 1.1786 0 0zm-20.931-0.48507c-0.15993-0.6084-0.48436 0.65846 0 0zm26.282-0.21171c-0.40242-0.83352-1.0767 0.83361 0 0zm-22.225-0.23547c3.8643-0.39007-0.98747-0.21137-2.3214 0.20586 0.7709 0.075 1.554-0.15101 2.3214-0.20586zm-3.9688-0.082c0.40854-1.0003-1.0865 1.0324 0 0zm27.451-0.30868c0.60886-0.86659-1.0833 1.0535 0 0zm-20.263 0.0155c-1.0977-0.17506-0.0136 0.30531 0 0zm13.891-0.68735c-0.37221-2.5793-0.0867 2.7929 0 0zm-10.231-1.6312c-1.8504 0.59308-4.4012 3.1272-1.1063 0.75276l0.55176-0.36745zm17.05 0.80376c-0.30607-0.0571 0.1852 1.1787 0 0zm-13.611-2.7712c2.6167-0.19524 2.0999-6.3656 1.4667-1.4378-0.56682 1.4802-8.1425 3.812-3.3363 2.2264 0.61951-0.27145 1.2405-0.54004 1.8696-0.78857zm7.6675 0.96325c-0.6153 0.12834-0.17136 1.1381 0 0zm13.097-5.2055c0.16064-2.4669 0.42554-7.5784-2.4865-3.3993-1.5357 0.2573-5.6045-0.49856-4.3523-0.79699-1.5025-0.0458-3.3678 1.0396-1.1378 0.47729 2.1158 1.9022 3.7059 6.3097 0.53293 6.9689-1.3036-2.7837 0.65601 3.4782 2.7303 0.98551 2.2884-1.6417 5.4678 3.1764 4.6641-1.2819 0.0249-0.98433 0.04-1.9689 0.0492-2.9535zm-12.648 4.0149c0.7577-1.8223 3.5622-3.8133 0.70008-1.4648-0.64503 0.0953-1.6664 4.0129-0.70008 1.4648zm3.9066 0c-0.30606-0.0569 0.18522 1.1786 0 0zm1.062 0.18741c-0.3024-0.30324 0.15221 0.98617 0 0zm-29.048-1.2898c-0.49108-2.4291-0.65816 2.578 0 0zm6.7502-0.0275c-1.0178-0.13555-0.43013 0.25075 0 0zm-7.8915-2.7947c0.80067-1.5302 1.1674-1.6512 0.35114-1.3229 0.7907-1.1458 3.3097-2.7768 0.42109-0.91582-1.5459 1.6515-1.5363 5.1706-1.7782 0.83831 0.0056-2.4869 5.0012-7.2946 0.91001-3.005-1.8554 3.587 0.81588-3.5638-1.4299-1.1338 0.08246-1.8662-0.71066-5.8872-2.4059-2.7384-1.035 1.1644-1.9366 2.6251-3.7176 2.1336-2.3228-0.0248-5.5499-0.23967-2.2028 2.0401 1.9508 1.1902 2.1366 2.8196 0.79257 4.7069-2.0025 3.2635 3.0285 0.29081 4.7743 0.13047 1.2403 0.42955 3.0542 1.8888 3.9509 1.7017 0.08303-0.81467 0.11477-1.6416 0.33445-2.4351zm8.9465 2.6172c-1.0977-0.17505-0.01358 0.30531 0 0zm-2.7932-0.58621c-0.532-0.0189 0.2087 0.83024 0 0zm4.6012 0.17386c0.81433-0.56748-1.7075 0.57421 0 0zm-1.9347-0.37c2.9514-0.90223-4.5325 0.46327-0.77178 0.25159l0.77178-0.25164zm20.785-0.71603c-1.48-3.2781 0.81426 2.4803 0 0zm-16.989 0.28775c1.7994-1.1862-2.2978 1.0314 0 0zm-9.3349-0.39234c0.5721-0.81169-0.98419 0.92767 0 0zm7.5475-0.15619c-0.31587-0.19844-1.4382 0.93728 0 0zm-4.972-0.87642c-0.64946-0.20002-0.32393 0.30724 0 0zm9.8088-0.76604c-1.3337 0.99119-1.0959 1.2185 0 0zm12.993 0.51981c-0.85303-1.276 0.45351 1.2538 0 0zm-20.897-0.14232c-0.76756 0.20976-0.34076 0.49896 0 0zm0.74131-0.14064c-0.64946-0.20002-0.32394 0.30724 0 0zm10.224-0.55153c-0.30265-0.2048 0.21906 1.4506 0 0zm-9.3422 0.37514c-0.64945-0.20001-0.32394 0.30723 0 0zm18.142-0.55909c-0.84143-0.7803 0.88415 1.2478 0 0zm-12.355-1.1078c-1.2602 0.24377-1.2687 1.508 0 0zm3.3795 0.2334c-0.30265-0.20481 0.21905 1.4506 0 0zm8.168 0.0623c-0.57109-0.81703-0.62124-0.13809 0 0zm-8.6483-1.0358c1.2774-1.7788-1.6168 1.7884 0 0zm0.74103-0.13229c-0.11465-2.4823-0.34593 2.4848 0 0zm6.893-0.11682c-1.0977-0.17506-0.0136 0.30531 0 0zm6.791-1.0631c-1.5125-0.17166-0.0649 0.28417 0 0zm2.9589-0.41465c-0.71995-0.38544-1.265 0.67933 0 0zm1.1896-0.10863c-1.0176-0.13573-0.43042 0.25104 0 0zm2.6042-0.85741c2.3777-1.18-1.4012 0.2695-0.89479 0.40756zm2.9269-2.3536c-2.6172-1.4266 0.91177 0.74239-0.35011 0.94807 0.22323-0.26433 0.90191-0.57916 0.35011-0.94807zm-37.814 0.0409c3.513-1.2491 0.68287-0.86957-0.6527 0.2754zm28.752-0.19002c-1.7597-0.26515-0.34422 0.27001 0 0zm5.9384-0.16401c-1.9617-0.29229-5.7824 0.44836-1.3625 0.11838l0.68882-0.0446 0.67368-0.0738zm-37.909-1.6518c0.57317-0.60441-1.4062 0.65032 0 0zm2.2931-0.60695c-0.32265-0.58674-0.85549 0.38023 0 0zm13.236-0.38165c1.9305-0.98073 4.7107-1.9449 1.542-2.9919-2.4054-2.9238-1.4865 3.9906-5.0043 3.2036 1.1529 0.0739 2.3376 0.0928 3.4624-0.21168zm-1.2749-0.0138c0.98617-0.15226-0.30352 0.30235 0 0zm-11.212 4e-3c-1.0977-0.17505-0.01358 0.30531 0 0zm1.1429 0.0102c-0.64946-0.20002-0.32394 0.30724 0 0zm2.5619-0.1642c-2.6667-1.4437-2.7155-0.76841-0.13289-5e-3 -2.9317 0.28076 1.1659 0.50358 0.13289 5e-3zm4.4936 0.1642c-0.64943-0.20002-0.32393 0.30724 0 0zm19.803-0.86357c-1.0068-0.72927 0.59422 1.1408 0 0zm-23.548-0.61736c-3.3059-1.9569 2.3879 1.7789 0 0zm-1.4993-0.70556c-1.3764-0.63292 0.54385 0.59096 0 0zm23.884-0.19582c-2.7481-2.6136 0.0539 0.58213 0 0zm-25.343-0.26352c-0.64946-0.20002-0.32393 0.30724 0 0zm-2.7892-0.53418c-1.7206-0.19575-3.4202 0.60234 0 0zm20.214-1.0911c-1.8199-0.031-1.8086 1.7008 0 4e-5zm-15.613-0.73106c-0.57346-1.8634 1.6578-2.1957 2.7484-3.1507-1.5197-0.1602-4.4414-2.2203-5.2056-3.3004-0.5931 2.5613-5.7033 0.68784-4.4801 2.7265 1.4866 2.3324 4.7429 5.1001 6.8913 4.7303zm21.519 1.0735c-1.2669-1.0408-4.0711-1.3064 0 0zm-5.0017-0.69096c-1.4916 0.14619 0.49536 0.31152 0 0zm0.98887-0.15313c-1.0977-0.17504-0.0136 0.3053 0 0zm10.165-5.8486c5.1952-1.9855-2.228-2.0987-3.0232-4.1384-0.62761-1.038-0.78237-4.1122-1.7335-3.7571-1.2488 1.0825-2.283 2.6774-3.6598 3.454-1.2904 0.0663-5.4599-0.48794-4.1604 1.4501 2.1753 1.4612 2.2453 3.2528 0.77995 5.2098-1.9822 3.1785 3.2595 0.56024 4.9798 0.56963 1.4858 0.99187 2.9716 1.9838 4.4574 2.9756 0.10331-1.5872 0.20661-3.1744 0.30991-4.7616 0.68331-0.334 1.3666-0.66799 2.0499-1.002zm-29.044-6.5636c2.809-0.69884 0.67968-3.0922 0.3468-4.2891-2.2445 1.1536-4.0932-0.18328-3.658 2.5312-2.0653 1.9865 2.3257 0.65812 2.7725 2.4688l0.53866-0.7109zm8.903 3.2244c-1.3989-4.041-2.7-8.1152-4.0783-12.163-4.9311-1.687-10.037-2.9384-14.878-4.8414 2.1579-1.4733 4.3086-3.2381 6.6106-4.3826 3.9553 0.03343 7.9177-0.09315 11.867 0.13229-1.5848 1.243-7.1321 3.1353-2.0797 3.5061 1.477 0.60062 3.7996 0.2392 3.9797 2.3135 0.60778 2.3684 1.234 4.0307 2.6303 1.3329 0.64464-4.2521 10.156-0.40069 5.2399-4.6635-2.6297-2.3175 0.55536-3.0684 2.4849-2.6213 4.5165-1.2852 5.3084 1.7925 7.6833 4.8704 1.2715 2.2817 7.7146 7.2282 1.679 6.2161-3.8278 0.04439-7.6559 0.01938-11.484 0.02599-3.295 3.3479-6.185 7.077-9.4932 10.407zm-24.464-16.894c-1.493 0.62305 7.2085-3.5439 2.9877-1.0908-0.92475 0.33376-1.9525 1.8437-2.9877 1.0908zm2.0076-3.3977c3.2939-2.4007 1.8761-0.52647 0 0zm5.3537-0.94111c0.947-0.52552-0.42981 0.5421 0 0z" fill="#3a73ac"/><path d="m77.276 195.84c0.13579-1.505-0.26552-3.2454 0.18843-4.6109 1.3401-1.1738 2.1061-2.1057-0.05614-0.30461-0.23033-3.3951-0.09622-6.8065-0.13229-10.209 2.2206-0.1737 1.9454 0.0109 0.10838-0.37493 3.2801 0.5702 4.2805-1.544 7.0307-2.826 0.1739-1.3653-4.2828-0.48789-4.0713-3.1412-0.32055-2.6706-1.6449-0.62309-2.7633 0.45674-0.693 0.0947-0.11599-2.8601-0.3044-3.977-0.6961-2.1037 1.3238-1.9555 2.8134-2.2472 1.8079-0.8178 3.2919-0.0592 4.6924 1.1437 2.2949 1.5004 4.6083 2.9722 6.9169 4.4512 0.10093 3.5038-5.4928 4.0801-5.9523 5.7476 3.5016-0.68166 3.5761 0.93571 1.3457 2.9543 5.5966-5.178 4.8691-13.867 9.7725-19.533 2.9155-3.0753 2.9397-7.3871 3.4966-11.335-3.3487-1.8607-6.7489-4.1632-7.2101-8.3064 0.28906-2.3648 2.9276-1.8368 5.544-1.8188 1.6389 0.0591 3.3178 0.25338 4.5561-1.045 1.0027-1.7615 6.1779 0.9986 1.94-0.72643-3.7343 0.16456 2.8284-2.027 4.0831-2.6048 1.2572-2.4285 9e-3 -4.9941 0.37804-7.5646-1.0513 0.37669-3.057 3.21-4.6282 4.1919 0.39041 2.1488 3.787 0.9957 3.1109 3.2351-0.77456 1.4823-2.7946 0.44544-3.632-1.0209-0.50543-3.7195-4.8272 1.7187-7.6388 0.0483-0.2015-3.7192-4.7991 0.92776-0.95075 1.0123 1.8041 0.0943 5.824 1.8158 3.2494-0.72446 2.0761-1.5641 4.7167 2.0996 4.2457 3.3948-1.1733 1.359-3.5128-0.31888-5.1169-0.0906-3.9977-1.7178-7.0797 0.16107-9.5632 3.3699-1.1466 0.84298-2.251 2.6388-3.4228 2.9141-2.6768-2.1357-5.3396-4.2888-8.0078-6.4352-0.0071-2.5467-0.01424-5.0935-0.02136-7.6402 2.7155-1.3552 0.69334-2.3697 0.32114-4.4869 1.403-1.4871-1.5887-3.8589 0.34031-4.7912 5.6016-0.52787 11.168-1.6554 16.793-1.7766 3.5078-0.0654-8.4935-0.82556-2.4139-1.2184 2.1197-0.12705 3.9203 0.29595 1.0979-0.94012-1.2139-2.3671-7.2565-5.5082-5.5551-7.4923 2.1955-0.0193 7.4667-1.2324 2.5892-1.7303-1.6555 0.36236-4.1884-1.1565-5.1221 0.8089-4.7733 3.2851 6.516 6.9115 3.4908 8.6999-3.5059-0.17923-9.4204 2.5137-11.541 0.45453 0.87037-1.1175-1.212-5.1927 1.5277-2.4992 2.3211 2.1073 4.3188 0.74514 1.2633-0.62689-1.0855-1.0888-3.3069-1.6116-2.791-3.4984-0.02477-1.9774 2.7461 1.9903 3.766 2.2548 0.50207 1.1784 6.0139 3.7722 3.8415 1.4013-1.8095-2.2814-4.1704-2.88-5.9173-5.0596-2.2434 2e-3 -2.7035-5.1458-0.16414-4.1646 1.8751 0.92183 2.3062 6.7652 4.383 2.2311 0.84105-1.4356 1.7984-2.6398 3.6238-2.1167 2.0832 0.0581 5.6982 0.27989 2.33-1.9507-0.95913-1.2439-3.3985-2.0993-2.1219-3.9202 0.81736-2.189 1.8146-5.0113-1.4948-2.9584-2.6446 1.8874-5.4505 0.73178-8.0849-0.37265-0.22576-1.8283 1.2813-3.1365 0.72076-5.7946-0.47105-1.7673-1.9638-5.2894 1.6339-2.8412 1.3809 0.58814-0.44593 1.507 0.54158 2.7455-0.46453 1.92 2.5019-0.30151 4.103 1.3273 4.8977 1.5802 9.8067 3.125 14.719 4.6588 1.8254 5.4472 3.5086 10.946 5.4988 16.335 4.1657-4.5056 8.0806-9.239 12.045-13.923 6.4867-0.0489 12.981 0.11809 19.462-0.16739-3.4133-4.1611-7.0878-8.1121-10.378-12.374 2.8718-2.5426 7.8042-0.37801 2.9431 1.1038 2.3756 1.5697 2.5592 5.439 5.7106 3.0379 1.8995 0.17492-0.64367-2.628 1.4205-3.5486-3.1307-0.10724-4.0013-2.3519-0.68963-1.6259 1.9911-0.37102 3.0532 0.18262 2.5239 2.3203-4e-3 7.3938 0.0436 14.788-0.0255 22.182-4.2043-3.457-1.5381 4.7874-2.329 7.0376-0.0719 22.228-0.0845 44.456-0.38142 66.682 1.4838 1.0993 4.18 4.8119 1.091 1.557-1.748-2.2291-6.4002-5.842-7.0001-6.8331 1.9338-2.1622 0.8887-6.3366-0.1478-9.1194-2.1405-5.9229-2.5474 5.638-4.3504 1.0416-1.3243-2.6847 0.72264-5.7372 0.8743-8.6702 0.11271-1.6737 0.45832-3.1538 2.3948-3.3112 2.0392 0.0216 4.1074-2.698 0.9128-2.6906-3.9978 0.95035-6.3592 3.6328-6.1013 7.689-0.77895 2.5828-4.882-5.111-1.6585-3.3491-1.5753-3.7856 7.3148-4.6337 1.6518-5.8729-2.5759 0.31256-1.6074-5.4378-4.1502-2.352-2.2682 2.664-1.7674-2.0335-1.2166-1.8924-2.6427 1.3815 0.95391 4.5393 0.84586 6.7382 2.539 7.3386 6.6046 14.028 9.7855 21.095 1.8343-1.3654-0.79047 0.64302 0.99081 1.6799 0.9817 2.1162 3.1206 5.5325 0.98203 1.4594-1.7707-4.133 4.364 3.2614 5.5884 4.2887 0.99854 1.2144 2.8266 2.0902 2.3297 3.9152v9.2776h-60.501c-1.71e-4 -1.4791-3.41e-4 -2.9582-5.12e-4 -4.4373zm28.264 3.0609c0.64186-3.3763 1.1262-8.113-0.0992-5.9025-1.7002 0.80455-0.52523-2.2232-1.3273 0.82322-0.77033 2.7439-1.4843 6.8309 0.41418 3.6404 0.93971-2.7105-0.0629 2.5148 0.89876 1.3318l0.11374 0.10697zm-0.35978-2.9452c0.0801-1.0059 0.16958 1.0895 0 0zm0.17639-1.2347c0.0801-1.0059 0.16958 1.0895 0 0zm-4.5181 3.6856c0.99299-1.509 1.3123-3.5554 1.8985-0.88245 0.52619-1.4478 2.3548-7.202 0.64499-4.9198-1.9445-1.0687-1.8681 2.1459-2.5323 3.4589 0.0669 0.54668-1.8405 4.3482-0.0113 2.3434zm-0.23769-2.5832c0.41712-1.8157 1.807-4.3137 0.57185-3.5267-1.0512-3.1187-1.9075 2.4961-3.1482 4.5899-0.7103 3.0891 2.645-3.5458 0.94722 0.61831-0.59218 3.2798 1.6103-0.44175 1.6292-1.6815zm-2.1577 0.76007c0.42012-0.92238 0.23972 0.61123 0 0zm14.232 1.8968c-0.3024-0.30324 0.15221 0.98617 0 0zm-9.8778-0.52917c-0.30238-0.30324 0.15223 0.98616 0 0zm-17.684-0.62838c2.1719-2.8145-2.4309 2.2924 0 0zm22.094 0.27561c-0.30239-0.30326 0.1522 0.98615 0 0zm5.2956-0.71658c-0.27001 0.34422 0.26515 1.7597 0 0zm1.1672 0.44097c1.3239 2.2379-0.0309-3.5543 1.3542 0.26836 0.6909 0.72171-1.093-5.6436 0.3264-1.4741 1.9617 3.2153-1.2666-5.3796-0.73154-2.3762 0.0663 0.40748-1.0386-1.4878-0.53336 1.2238-2.1808-4.4108-0.61354-0.0283-0.96427 1.1075 0.17806 3.5553 0.19285 0.50291 0.54859 1.2506zm-27.767-0.29646c-0.75695 0.61522-0.4976 0.96102 0 0zm-0.93183-0.81436c3.7048-4.8858-3.7006 4.033 0 0zm-0.28585-0.59426c-1.9778 1.4745-1.0286 1.9981 0 0zm32.335 1.2468c0.6736-2.2808-2.3264-6.4913-1.2447-2.2316 0.56897 0.45677 0.10772 2.7954 1.2447 2.2316zm-33.934-0.484c2.3619-0.79544 3.7885-5.5428 0.8535-1.7743-0.24278 0.55196-2.5586 2.1082-0.8535 1.7743zm1.0694-1.4615c1.1934-1.3914 0.2621 0.18727 0 0zm34.654 0.69074c-1.2106-2.6535 0.9099 3.068 0 0zm-6.5196-0.62414c-0.578-3.5627 0.22253 4.0722 0 0zm-27.879-1.2168c2.7179-1.2308 1.1828-3.5134 0.68176-3.6514 4.6645-3.789-2.0758 1.2614-3.2336 2.641-1.7238 1.7004 2.9516-2.1048-0.14138 0.74164-0.50912 1.7373 4.3709-3.654 1.135-0.11374-2.5304 3.1057 2.8968-1.7206 0.05951 1.0378-2.2166 2.4235 0.64567 0.77014 1.4987-0.6553zm0.09815-1.1428c1.1934-1.3913 0.26209 0.18728 0 0zm0.34358-1.4229c1.5347-1.4317-0.93422 1.3438 0 0zm34.346 4.0317c-1.3836-3.368 0.36125 2.1746 0 0zm1.2938 0.0862c-0.66455-2.2429-1.9039-4.1946-2.4395-3.915 0.72782 1.0545 0.56974 4.4913 2.4395 3.915zm-35.101-0.42354c1.2455-1.5681-1.66 1.5921 0 0zm36.292-0.70191c1.9116 0.15315 0.0359-3.4704-1.1036-4.5029-1.4168-0.22162-1.658 3.0176 0.0591 5.0711 0.16939 0.48551 0.72314-1.346 1.0444-0.56817zm-3.6714-0.69815c-1.2975-2.8462 1.0318 3.2414 0 0zm-36.854-0.63915c2.9398-2.8398-3.7293 2.6333-0.30609-0.53688-0.62468-0.15235-3.0786 3.5375-0.23299 1.0363l0.53907-0.49944zm-0.55374-0.82246c1.9535-1.8567 2.3504-3.6668-0.6198-1.3219-2.6773 1.2153-1.7854 4.5124 0.6198 1.3219zm13.077 1.186c0.43251-1.252-0.83864 1.2658 0 0zm0.42651-1.4108c0.76302-1.6186 2.2832-4.2272-0.53705-1.2949 1.3436 0.8394-3.8292 0.22144-0.62911 1.6914 0.36466 1.757 0.84417-0.29559 1.1662-0.39653zm30.369-0.21339c-2.0385-3.0401-1.972-0.47526-0.4043 1.2979 0.30683-0.35021 1.0165-0.77381 0.4043-1.2979zm0.95096-0.0956c-0.66478-2.1721-0.38061 0.749-0.89995-1.8297-0.45915 0.0217-1.8862-0.30961 0.0289 1.5845 0.2672 0.23296 0.8774 1.3395 0.87106 0.24519zm-46.172-0.48506c3.7068-2.201-1.5779-1.002-1.1034 0.73935l0.41728-0.25593zm12.927-0.61737c-0.01207-0.66854-1.1678 0.73732 0 0zm1.2428-1.7957c-0.16926-1.0673-1.5585 1.7145-1.0502-0.30746-0.20202 1.6785-0.06536 3.8947 1.0502 0.30746zm0.48196 0.9579c2.57-3.3933-1.7354 0.96638-0.45506 0.5599zm31.496-0.261c-1.3942-1.3308 0.55869 2.4458 0 0zm-43.869-0.44456c0.60884-0.8666-1.0833 1.0535 0 0zm45.077-0.95911c-0.30238-0.30324 0.15223 0.98616 0 0zm-34.516-0.0278c-0.94229-1.1015-0.84233-0.48967 0 0zm41.099-0.18213c-0.57109-0.81703-0.62124-0.13808 0 0zm-45.741-0.49564c-0.30242-0.30324 0.15228 0.9861 0 0zm3.8877-1.7749c-0.20749 1.4953 0.16853 1.5395 0 0zm40.971 1.5742c-1.0778-1.2203-1.0616-0.73838 0 0zm-3.8806-0.18554c-0.57109-0.81703-0.62125-0.1381 0 0zm-40.802-0.49564c-0.30242-0.30325 0.15228 0.9861 0 0zm-0.83145-0.93707c-0.61528 0.12832-0.17136 1.1381 0 0zm39.336 0.48507c-0.83114-1.4224-0.79637-0.83188-0.0167 0.11523zm8.5374-23.239c0.0876-17.416 0.20063-34.832 0.33493-52.248-4.1475-3.5946-2.4683 2.9491-2.8086 5.7588-0.7827 3.2666 2.1681 10.196-3.2517 9.1719-1.9974 0.57591-0.65822-2.3902-1.0443-3.5249-0.0227-2.7507 0.0703-5.5096-0.13817-8.2531-2.4845 0.11789-1.7013 2.399-1.8014 4.0954 0.1999 2.2957 0.0657 4.547-2.4056 2.1392-2.2949-1.1556-4.2315-3.6658-7.0078-2.4095-2.8453 0.41353-7.8018 1.155-4.6214-3.1433 2.1966-2.228-0.738-5.5352-2.1187-1.9259-4.0055 2.0692-0.53687 5.0149-0.22456 6.7683 3.0627-0.92839 2.8425 0.52889 0.71657 1.7227-1.5333-1.3965-3.3913-2.8572-3.4126 0.57299-1.855 2.0076-5.7262 1.5666-2.0902-0.86817 1.1549-1.6728 1.7317-4.4394-0.76656-2.1936-1.7794-0.57377-1.1038-4.1962-3.5351-1.2809-2.1592 2.0768 4.946 7.0601-0.47176 4.5045-1.474-1.092-6.2745-2.135-2.0443-0.67817 3.9763 2.418 9.6962 3.5368 13.162-0.40227 2.4448-2.7334 8.6095-3.0194 9.6118-0.75215 1.121 0.25301 3.6394 5.3474 1.9473 2.6667-0.10361 2.8116-0.24902 4.3403 3.0037 3.3106 2.0675-0.14786 10.598-0.76724 5.0173 1.8325-3.3863 2.0928-7.6643 1.179-11.218 2.6097-0.16279 1.2666 6.4514 4.1003 2.2056 7.0262-0.3996-1.2695-3.7384-5.8597-4.7834-6.3902 0.6621-0.3956-2.7106-0.64408-3e-3 0.7143 3.8766 3.0232-2.1708 5.953-2.559 9.4277-1.9093 2.5107-4.462 3.6686-4.4231-0.41191-1.6606-0.37111-3.7919 0.85507-0.45976 0.12663 0.38712 2.9297 1.3806 4.2734 3.906 1.6083 2.5772-2.0524-0.71583 3.5558 1.069 4.6148 0.78877 1.5643 4.2684 6.755 1.6974 2.3673 3.5591 0.68132 9.2615 4.6147 13.783 6.083 4.5213 0.39241 1.095 7.7819 2.1625 11.138-0.0309 5.4767-0.0565 10.953-0.0322 16.43 1.5278 1.7173 3.2051 3.4416 2.4867-0.3453 0.0474-6.6209 0.0822-13.242 0.11677-19.863zm-7.387-11.699c-2.8624-1.7622-8.9774-3.2329-9.4558-5.1965 3.4532-1.6473 6.8612-3.3864 10.246-5.1704-1.4418-1.25-3.047-1.4058-4.7895-0.69049-2.2561 0.98022-2.701-2.9772 0.0835-1.7034 2.1362-2.3832 5.869 3.2045 5.2488-0.71284 0.11508-2.9081 0.1858-5.8182 0.16683-8.7287 1.8863-0.91368 4.2005-2.8213 3.4166 0.84479 0.0564 4.0223-0.0247 8.0445-0.0894 12.066-2.9766 1.4694-5.9818 2.8828-8.9234 4.4214 2.7111 1.7695 5.9776 2.793 8.9476 4.202 0.8297 4.6281-2.3729 1.519-4.8507 0.66806zm3.2929-4.2267c-1.9936-0.24828-4.6921-0.59877-0.81118-1.0386 1.9124-2.5311 3.611 0.72027 1.6647 1.3667l-0.85352-0.32817zm-15.054-2.3072c1.2461-0.67955 2.8478-4.1713 3.4818-1.1043-0.81477-1.2159-4.5671 2.5051-3.4818 1.1043zm0.20745-1.2582c1.3764-0.63286-0.5439 0.59092 0 0zm-1.0583-1.581c1.7322-2.6842 1.2527-4.9738 3.5868-5.3826-0.78105-1.9413 2.5128-0.9593 0.37658-0.7069 0.46124 0.92846 1.76 0.61821 1.0135 2.253-0.0985-1.3357-0.55037 3.7598-2.9038 3.1185-0.68472 0.25387-1.3509 0.57741-2.073 0.71806zm6.2336-1.4417c-0.2137-3.4561 1.42 1.0654 0 0zm-1.8212 0.15637c0.31795-3.294 1.3702-0.0962 0 0zm1.4539-2.6064c-0.54094-3.3092 0.77218 2.4182 0 0zm2.4535-7.4973c-4.6332-0.0161 6.7867-2.1581 4.0274-0.44987-1.0091 1.2103-2.7279 0.51283-4.0274 0.44987zm1.2052-4.7308c-7e-3 -2.9085 2.4446 1.0161 0 0zm0.26459-2.3072c-3.5488-2.4892 0.0986-1.1943 1.1128 0.56298-0.44087 0.0828-0.73411-0.4975-1.1128-0.56298zm-11.289-4.6161c2.0082-1.2104 4.0323-0.75247 0.52917-0.0842l-0.60542 0.22232 0.0763-0.13812zm-26.147 65.458c-0.01233-2.5423-0.3759 3.2907 0 0zm5.0358-0.2886c0.88015-1.3095-2.2847 1.4347 0 0zm33.134-0.0201c-0.30607-0.0569 0.18522 1.1786 0 0zm-22.077-0.14761c-3.2322-0.13076-6.4674-0.10816-9.7014-0.10126 3.9187 0.11824 7.8454 0.47542 11.762 0.21191-0.68541-0.0632-1.3743-0.0747-2.0609-0.11065zm9.3045 0.23642c-1.7463-0.0906-6.3011 0.0655-1.9844 0.0563-0.0368-0.0447 2.9887 0.069 1.9844-0.0563zm12.953-0.78334c-0.3024-0.30324 0.15221 0.98617 0 0zm-32.817-2.33c1.6961-1.092 1.1568-6.7033 4.2511-3.2215 3.805 3.5105 4.7056-4.571 6.9074-6.1565-0.60223 2.5375 1.3171 5.0022 1.9904 7.4743 0.46397 2.3393 5.8411 1.1615 2.7093-1.59-1.6343-2.8507-2.5399-9.1165-4.7519-9.6627-2.65 1.6071-4.1597 8.5808-7.338 6.1498 3.5864-6.3382 8.2207-12.085 11.701-18.495 0.50107-3.1882 5.6491 3.2098 1.5431 3.3225-1.315 2.5066 3.6899 1.2 4.1419 1.9752 1.7417 2.0666 1.6272 4.4804-1.3679 2.588-2.3195-1.0949-7.0166-2.6483-6.4167 1.0835 3.4447 1.3546 6.958 2.5243 10.443 3.7696 2.7338 3.6094-5.4758 3.1084-6.3532 5.5627-0.032 2.8957 1.842 1.7418 3.5188 0.92928 1.8702-0.78712 3.7404-1.5742 5.6106-2.3614 2.5116 1.5047-0.0579 2.5385-0.75627 3.0526 1.2255 1.3626 6.0907 1.6248 3.723 3.838-4.3266 2.137 3.5484 0.72462 2.1078 1.759 3.2217 3.201-1.4203-4.3292-2.642-5.858-2.8474-3.8268-5.7004-7.7314-6.653-12.518-2.3728-3.035-3.4115-9.0116-8.1578-8.6685-2.1844 3.2351-3.1561 7.6261-5.5499 10.917-3.3237 5.9493-7.3307 11.664-9.5506 18.139 0.34394-0.65466 0.62725-1.3403 0.89-2.0296zm11.706 0.60573c1.9826-0.0803 3.6069-0.15358 0.68417-0.13743-2.9681 6e-3 -5.9274 0.25721-8.8863 0.46416 2.7344-0.0998 5.4687-0.20209 8.2021-0.32673zm8.158-0.13102c-1.7597-0.26515-0.34422 0.27002 0 0zm2.293-3e-3c-1.5394-0.16842-1.4954 0.20736 0 0zm1.4993 6e-3c-1.5125-0.17167-0.0649 0.28417 0 0zm-35.011-0.70813c-1.8333-0.16077-0.57024 0.24032 0 0zm16.407-0.3575c-1.9583-0.15912-2.2567 0.19067 0 0zm5.6209-0.17926c1.2778 0.27128-0.41879-3.7376-0.69915-2.8244-0.75606 1.8994-4.0514 3.645-0.24734 2.8805l0.94649-0.0562zm15.096-0.51386c2.1415-1.0456-2.8442-3.0308-4.2218-3.104-2.579 0.3552-4.0034 2.692-0.49523 3.3571 1.337 0.68586 3.4406 0.59344 4.717-0.25315zm-31.11-3.9136c-1.0196-1.4805-5.1029-4.1441-6.2225-3.9589 0.67856 2.1873 1.8061 3.9652 4.2663 3.9688 0.60872 0.0641 1.4688 0.60135 1.9562-0.01zm-8.1088-3.9075c2.7532-0.94052-3.0605 0.3436 0 0zm32.916-1.9331c3.4455-1.0802-5.4025-3.344-1.7259 0.31723 0.26017 0.96806 1.2327-0.33233 1.7259-0.31723zm17.815-5.023c1.3724-3.4097-3.0741-3.1426-1.7967-0.13447 1.019 1.7511 2.0597 4.1388 1.7967 0.13447zm-41.748-23.704c0.61186-1.0252 3.6997-2.4934 1.2698-2.9745-1.4766-0.55928-3.0382-1.9942-4.5597-0.76771 6.3388 0.88827-5.1828 4.0247 0.35599 5.9209 1.0202 0.66397 2.0363-1.7734 2.9339-2.1786zm11.042 1.7525c6.4565-1.1563-9.5365 0.71684-1.8531 0.17546l0.87595-0.0794 0.97714-0.0961zm-4.6203 0.0495c-0.64946-0.20002-0.32394 0.30724 0 0zm-11.744-3.3218c2.3588-0.87217-0.72058-2.102-1.8137-1.238-1.1348 0.69436-4.5568-1.7034-1.9071 0.50805 1.3782 0.73635 2.3771 2.4974 3.7207 0.73zm9.784-1.0739c-1.7861-2.8483 7.1981-5.6755 1.9522-3.7632-1.9228 0.56942-2.6257 5.0952-2.6022 1.1217-1.3765 1.8558-1.2861 3.0813-0.12492 1.8045-0.01653 0.16736 1.4453 2.004 0.77489 0.83697zm-1.5421-4.7129c1.2921-1.661 2.8339-4.2311 0.10654-1.5444-0.96202 1.8441-1.3721 3.7261-1.3039 0.47386-0.06358-4.1393 5.8949-6.779 7.3442-7.8702-2.0426-0.80498-7.4487 2.2265-6.3271 2.026 1.6791-0.91 5.5615-2.4654 2.5595-0.2522-1.4751 0.93671-4.7984 6.7565-2.9317 1.9691-0.81337-1.706-1.5326 1.4833-1.2743-1.4398 0.72622-2.3812 0.34922-0.57044-0.25195-1.299-0.91176-3.6365-2.7676 2.0415-4.6289 2.1586h-5.4825c1.3254 1.2673 2.6509 2.5345 3.9763 3.8018-1.2217 2.7616-2.8349 5.935 1.5224 3.7076 1.6775-0.95239 3.2335-0.4502 4.7266 0.59461 2.3615 2.1645 0.99818-1.1924 1.9646-2.3262zm0.20223-1.1282c1.3622-2.7894 0.54779 9e-3 0 0zm4.3176-7.472c1.1048-0.72296 1.4518 0.56926 0 0zm3.4514 11.004c2.2234-0.59348 4.6863-2.342 0.79449-1.2258-2.9926 0.55477 2.0755 0.3428-1.5625 1.1218-2.2633-2.8424 3.0213-0.66159 3.3966-2.1246-1.8691-1.4607 5.1534-1.4645 0.37938-0.0509 1.3933-0.536 4.6878-2.3862 3.5471-2.1821-2.2272 1.3454-10.036 1.2091-7.2676 4.6624l0.71255-0.20087zm-19.219-0.9503c0.85626-2.8671-4.0648 2.7822-0.19223 0.65579zm38.521-4.0582c1.4122-1.5001-2.1044 0.45628 0 0zm-27.428-3.371c-0.39937-0.38865-0.383 0.91207 0 0zm-6.623-2.4625c2.503-3.0087-7.964 1.5959-1.9055 0.92218 0.92114 0.13049 1.3371-0.25837 1.9055-0.92218zm38.018 0.1462c0.0889-2.2961-1.2955 0.22206-0.36559 0.57327l0.29553-0.11242zm-28.041-2.0672c1.6465-0.63022 7.4101 0.24707 2.888-1.4287-2.504-0.40565 3.6304 1.3853-0.85669 0.74847-2.405-0.37903-8.239 2.8673-2.8174 0.86155l0.78608-0.18129zm-4.3608 0.70014c0.19752-1.236-0.76279 1.2367 0 0zm0.84749-0.56028c0.38338-1.0726-1.2646 1.6164 0 0zm-0.28123-0.32166c0.90237-1.2616-1.3163 1.2828 0 0zm2.9986-1.4249c-0.44722-0.47039-4.3211 1.9256-0.58594 0.16624zm0.30868 0.24974c-1.0977-0.17505-0.01358 0.30531 0 0zm1.6778-0.18076c-1.5107-0.0733-0.4721 0.21393 0 0zm-0.71129-0.33815c-0.64946-0.20002-0.32394 0.30724 0 0zm3.5382-3.5462c-1.0549-2.436 5.532-3.1386 1.173-3.8425-1.8694 0.0441-2.4592-1.4882-3.1016-2.9556-1.0318 0.24791-2.0366 2.3985-3.7127 1.8734-4.1732-0.53923 1.0721 3.9842 2.3552 4.928 1.3543-0.24491 3.5936 3.268 3.2862-3e-3zm25.614-2.3492c-0.41954-1.8057 0.35474-2.8607 2.1167-3.2947 4.5547-1.4191-0.50881-2.7191-2.5167-3.35-1.3322-1.4933-1.2023-7.2476-3.765-3.0721-1.0293 1.2966-2.1249 2.4386-3.9153 1.9605-3.9166-0.5717-2.8526 2.0878-0.56946 3.6243 0.36583 1.5929-3.8764 5.9016 0.37649 4.3761 3.0047-2.3875 6.6623 2.47 8.2288 1.3915l0.0325-0.74412zm-22.503-2.8616c-0.30349-3.3703-4.9394 0.0474-0.43758 0.28274 0.16901 0.27511 0.75062 0.0104 0.43758-0.28274zm-5.7975-2.6827c2.2708-0.0429 5.3757-0.88546 1.2903-1.7722-1.5643-0.57221-6.189-2.7007-2.659 0.10907 2.3873-0.0434-1.0882 2.6862 1.3687 1.6631zm31.436-5.0443c-0.26604-2.0188-2.1748-2.5509-3.7512-1.7539 1.0475 1.6612 0.62854 4.7782 3.0875 5.0574 2.7261 1.8549 1.2953-2.1312 0.66371-3.3035zm9.5735 3.5819c-1.5236-1.3699-2.4672-4.1939-4.341-4.864-5.0578-0.23716 4.0886 5.1938 4.341 4.864zm-37.081-1.7696c-0.62531-1.9404-2.305 1.0996 0.15375 0.77075zm-2.6274-0.90348c1.7499-1.4555 2.0238-1.524 0.71757-3.7387 0.04101-1.8518-2.8544 0.91367-4.1714-0.2795 1.0454 2.0993-2.3658 3.8255 1.5981 3.4766 0.66014 0.0335 1.3364 1.9476 1.8558 0.54157zm21.301-1.2012c2.9672-3.5425-2.5747-0.70587-3.0765 1.5053 1.3754 0.44397 2.2878-0.56257 3.0765-1.5053zm-27.093-0.87578c2.2097-3.7192-3.4761-3.8612-1.5917-0.34063 0.45964 0.47556 0.92852 1.4539 1.5917 0.34063zm44.54-0.36161c-0.70651-0.19402 0.34892 1.0358 0 0zm-40.061-3.0682c1.146-0.96409-7.3061-3.1229-2.7135-0.0323 0.84966 0.22874 1.9107 0.67961 2.7135 0.0323zm-11.586-3.0204c3.0764-0.90114-3.1335-2.8702-3.1395 0.21268 0.9919 0.88197 2.1255 0.11862 3.1395-0.21268zm51.403-2.0142c0.0553-2.0554-2.8287 0.23308-0.0915 0.98369l0.0915-0.98369zm-46.873 73.31c-3.0664-3.471-7.0768-2.3178-10.962-1.4021-1.2071-3.4568 4.1583-2.3207 6.2988-3.2951 1.6821-0.86975 2.9453 0.47934 4.3048 1.3187 1.8955 1.7672 7.0144 2.5536 4.5015 5.9218-1.4402-0.74172-2.7698-1.687-4.1429-2.5433zm2.6112-5.2035c-1.6774-0.7493-3.0945-2.7595-5.0869-1.9831-2.8529 0.38384-5.7058 0.95533-8.5639 1.1625-1.529-1.3332 3.1675-5.4311-0.04165-3.3155 0.32206-1.1154-1.1671-6.6912 1.0866-4.1595 2.3305 2.9779 3.6465-0.5055 0.64757-2.1134-1.1872-1.0449-2.2989-2.1204-1.8498-3.8297-0.24464-1.8784 1.5963 1.3212 2.9663 0.20295 0.92156-0.22963 4.9342 0.44016 2.9633-0.63112-1.4585-0.96326-2.9171-1.9265-4.3756-2.8898-2.039 2.6913-1.8161-0.88397-1.2162-2.5291 2.7788 1.337 6.713 2.7874 8.4326 5.5427 3.0054-0.47895 5.591-5.4191 7.1189-5.6711 0.28804 2.4926-0.14312 6.305 3.1492 6.6662-3.2793 2.4402 2.9076 1.784 3.6359 3.4724-0.05112 2.1301-0.35612 4.031-2.6928 4.5056-2.5415 0.37827-1.6988 2.9928-1.9559 4.8576 0.72838 4.9095-1.7346 1.9942-4.2176 0.71224zm2.0669-2.2574c-0.08629-2.1136-0.24023-4.4142 2.2992-4.8116 1.9225-0.89238 5.1428-2.1305 1.1606-2.7047-1.3201-0.78133-3.8822-0.38649-3.8786-2.414-0.53932-0.95787-0.48192-4.0241-1.4203-3.572-1.6789 1.1934-2.8933 3.8912-5.136 3.621-2.2927 0.019-7.7971-1.4478-4.0232 1.7895 2.1867 1.522 2.1612 3.0992 0.29312 4.6954-3.385 3.1496 0.01862 2.4388 2.6897 1.8272 1.5509-0.268 3.1771-0.89552 4.3798 0.49721 1.0675 0.37582 4.048 3.6787 3.6357 1.072zm4.8767-0.32653c0.88586-2.5749 0.08835 1.6625 2e-6 0zm-5.2625-20.723c0.98617-0.15228-0.3035 0.30236 0 0zm15.467-5.6261c-3.5692-0.3666 2.2397-5.9611 1.0041-2.4365-0.21712 1.3042 1.7914 5.1327-1.0041 2.4365zm0.79375-2.0145c-0.27577-2.3788-0.62171 2.4667 0 0zm-23.019-21.343c0.81108-0.62727 0.01141 0.60251 0 0zm17.819-8.2786c-0.68705-2.0612-1.3741-4.1224-2.0612-6.1836-4.9476-1.5539-9.9175-3.0459-14.82-4.7378 2.0833-1.5656 4.2885-3.2825 6.5841-4.4361 1.1943 0.07856 4.1434-0.38774 1.6371 0.83989-2.2778 1.4859-6.6581 3.5047-1.5604 4.0371 3.2248 0.9841 6.4482 1.9729 9.6677 2.9741 1.1514 3.3677 2.1606 6.79 3.476 10.097 2.6251-2.7941 5.1043-5.7244 7.6557-8.5868 3.9685-0.03104 7.9416 0.06481 11.906-0.11688-1.2931-2.9105-7.1015-6.8034-5.7179-9.1698 2.6663-0.5047 2.8492 4.1821 5.4391 5.834 1.5598 2.2448 6.4513 6.2856 0.72741 5.1808-3.8261 0.03871-7.6526 0.01692-11.479 0.02267-3.1008 3.3805-6.0094 7.0427-9.2838 10.183-0.9718-1.8674-1.4447-3.9664-2.1717-5.9377zm3.7472-2.24c-1.354-3.4498-1.4195-8.2324-6.2386-8.0957-1.9707-0.8057-8.5289-1.4727-3.3595-3.2391 1.6429-0.97222 3.2037-2.2168 5.2225-1.7827 5.9224-0.18641-7.3362 3.3687-0.27999 3.605 3.35 0.08019 4.6894 2.3587 5.518 5.3292 1.7646-1.0246 2.2338-4.3094 4.6916-3.7804 1.9824-0.0081 5.3898 0.13363 2.3707-2.1246-3.6234-1.4411 1.1387-4.8581 1.2141-2.1952 0.25986 2.4595 8.0994 6.9607 2.0883 6.2531-1.9888 0.20535-4.2775-0.24963-6.1211 0.25272-1.7038 1.9124-3.2189 4.1271-5.1062 5.7777zm-25.888-8.5314c-0.04476-0.68575 1.2836 0.50378 0 0zm0.92475-0.27933c1.3877-1.2344 4.2824-2.5165 1.1109-0.56746l-0.52347 0.31936zm1.0155-3.4248c1.3764-0.63287-0.54386 0.59092 0 0zm0.81692-0.62059c0.40738-0.85684 1.4178 0.37162 0 0z" fill="#264a6e"/><path d="m77.287 198.3c-0.51382-1.842 0.83272-2.8255 2.1453-3.8248 1.6181-1.2662 5.8409-5.1134 1.3927-2.2574-1.8203 1.8742-5.4049 3.3748-1.2718 0.75345 1.8805-0.93664 4.4606-4.6784 3.5441-4.1266-2.9539 2.4032 0.55963-2.1761-2.5752 0.39283-4.2806 2.6746 4.7145-4.4886-0.27346-0.73806-0.70772 0.52261-3.4029 3.5699-2.9271 0.64818-0.07793-2.6317-0.03304-5.2652-0.04506-7.8977 2.4728-0.14473 2.9813-0.024 0-0.343 0.81612-0.36895 6.9699-0.56412 3.3135-0.49547-1.8105 0.10927-4.1603-0.0689-0.63763-0.21997 1.1883-0.72053 4.5063-2.1548 4.502-3.144-2.8409 0.23578-4.1412-2.7694-4.9057-4.1628-1.2131 1.2332-2.9363 3.4083-2.2118 0.22111-0.56029-2.7572 0.25884-5.018 3.8551-4.6689 1.7704-0.65908 3.0337 1.3644 4.5605 1.9942 2.0404 1.8732 7.7719 2.9072 4.7916 6.443-1.7758 0.85555-7.9478 3.8505-2.6365 3.1368 2.4284 0.17673-2.1874 3.9077-1.6264 6.1622-1.1466 0.0946-6.6289-0.13781-3.2986 0.3251 0.44302 0.0234 5.1509 0.52073 4.0624-2.6994 2.7224-3.7444 4.7277-8.0312 5.9196-12.587 0.91175-4.588 4.5808-7.8289 6.3297-11.993 0.072-2.3552 1.7087-5.5277 0.61384-7.545-3.3207-1.5982-7.4132-4.9511-6.2372-8.7488 2.9959-0.40787 6.5401 0.56718 8.9951-1.6189 1.6353-2.0485 3.6221-0.14145 5.7336-0.5212 2.7286-1.0729 0.58067 5.5758 3.8175 2.317 2.6402-2.9597 2.3614 0.14702 1.5656 2.5323 0.9665 1.9457 2.2761 3.9758 3.5448 5.7902-0.70285-1.8963-2.1714-3.4104 0.71434-1.6705 4.0732 1.7953 7.9449 4.1791 12.112 5.6671 2.4401-0.60583 1.9187 1.5655 1.9664 3.2224-0.0283 8.0846-0.23725 16.175-0.13064 24.266 2.058 1.6759-4.3909-3.3852-2.8786-2.5396 1.8572-2.053 0.92172-6.7418-0.4121-9.5193-2.1629-5.106-2.6067 6.8045-4.4253 0.69355 0.6325-3.461-0.1962-9.841 3.6413-11.227 3.9936 0.0509 2.1734-4.7815-0.91321-2.0005-4.467 0.35975-3.7604 5.6032-5.1072 7.5419-1.0392-0.78526-3.7233-5.3589-1.0332-3.4538-1.2215-3.3237 3.8893-4.523 3.9981-5.5549-2.4879-0.43718-4.1451-1.8908-4.8396-4.204-1.5396 1.1119-3.5533 3.1914-3.4024 0.15662 2.274-2.5665-2.24 0.82566 0.39367 2.5334 2.6782 8.9928 7.4982 17.129 11.564 25.535 0.86168 1.9484 3.9373 7.4599 4.5827 6.8413-1.6172-1.4449-3.8635-5.1683-3.8642-6.4782 3.1233 1.8668 4.8098 5.6961 5.3866 5.1499 0.96729 1.5206 3.4874 2.4776 3.0982 4.5557v9.3444h-22.754c0.38022-0.98503 0.98409-2.405 0.58196-2.8649 0.57047 3.0323 3.2278-0.52802 1.2431-2.9149-0.65036-1.7794-1.1257-4.4717-2.0382-1.7394-0.70241-2.3373-0.96464 1.6242-2.3122-0.85925 0.2354 2.337 0.8885 5.8849 0.47065 7.4353-0.28071-2.2599-1.2242-9.8677-1.0336-3.8629 0.48696 1.3338 0.84777 7.4467 0.17675 2.4169 0.24027 2.9181-1.745 1.8074-1.6126-0.43487 1.6249 3.1445-3.1709 3.7401-3.2363 1.0601 6e-3 -4.6354-0.15246 2.2323-1.3943 1.1907-0.76269 9e-3 0.8417-6.254 0.68803-8.3344-1.0731 0.89448-0.91301 0.30741-1.8257 0.26462-0.0408-1.4514-1.3385 5.3702-0.73361 1.544 0.30455-1.5627 1.0124-4.4377-0.21649-1.4833-0.6628-1.4175-1.762-0.59392-2.2522 1.804 0.37461-2.0233 1.231-3.613-0.0428-1.8772 0.43595-2.4202-0.25968-1.099-0.75007-0.95894-0.0871-1.7009-1.22 2.689-1.9691 3.2859-0.96811 2.142-1.5534 3.9942-0.03459 0.73896-1.4535 2.5897-0.89034 3.8723-0.31296 3.9926 0.36776 2.6335 2.4454-2.5767 1.4783 0.93417 1.4023 0.43078 3.2113 0.13791 3.2059-1.6302-0.94366 2.6917 0.93235 0.90679 1.9219 2.0409-0.93012 0.36363-6.3967 0.23105-8.943 0.25213h-8.2142c-0.8036-2.0363-0.06805-3.7134-0.66688-5.4914-1.7805 1.3814-4.6245 4.1048-2.2358 5.2878-2.5409 0.37529-5.1273 0.13945-7.6892 0.20364 0.0035-0.66143 7e-3 -1.3228 0.01048-1.9843zm6.5566-0.65642c1.9391-1.8632 3.3258-4.3461 1.9207-3.6211 1.908-2.2807-2.0247-4.3392 1.6274-5.3044 1.1094-4.9318-1.7329 2.1704-3.992 2.3308-1.6982 2.1788-4.6171 3.5595-2.6307 3.7324-0.05233 0.91483-0.68974 0.67469 0.23127 1.0433-0.18402 1.6156 1.8894 0.97594 0.43191 2.7082-0.06281-0.14797 1.5361 0.62116 2.4114-0.88928zm23.712 0.65642c-0.30607-0.0571 0.1852 1.1787 0 0zm11.99-1.2347c-0.72236-0.64796 4.8394-2.4657 2.9582-4.4717-1.2088-2.7544-1.4428-2.5202-3.4062-6.2337 0.89095 1.2462 1.7383 4.1655 0.24082 2.612 0.184 1.0132-0.55939 1.4314-0.77603 2.516-2.0334-3.5278 1.0256 5.3548-1.2303 0.59721 0.31914 0.70247 1.968 6.872 2.2135 4.9801zm11-0.91563c-0.33702-0.62784-0.47445 0.31415 0 0zm-12.685-1.3518c-0.64071-0.90222 0.48859 1.5742 0 0zm18.506 0.31041c-0.94228-1.1015-0.84234-0.48968 0 0zm-41.976-1.5892c2.1841-3.3837-3.251 4.1933 0 0zm-0.35167-0.73118c0.84624-1.2004-1.3438 0.63547 0.66644-1.1127-0.60088-0.19505 2.4158-5.0617-0.35197-2.2513 1.1602-2.126 0.36778-1.645-0.63232-0.35397 0.51713-2.4762-0.84176-0.26729-1.4296-1.0667-1.6899-1.6216-1.2971-5.4944 1.6337-4.327 9.0823 0.0544 18.171 0.27902 27.246 0.30496-9.8452-0.50356-19.713-0.43125-29.567-0.70744 1.3722-2.5411 1.9061-5.6102 3.773-6.6416 2.3418 2.217 4.6475 2.4128 5.7241-1.0274 1.0576-1.7384 2.4552-4.7619 3.0056-0.99488 0.20549 2.7586 3.1732 7.5496 5.0563 4.3559-1.5698-4.1248-3.1412-8.2574-4.9502-12.283-2.8384 1.8633-4.4506 8.9912-7.8635 7.0409 3.5439-6.5319 8.5293-12.289 11.822-18.96 1.1083-1.9926 4.9746 3.5049 1.3274 3.7167-1.5217 1.3067 3.5028 3.11 3.7852 1.3383 1.3229 1.7111 2.7718 5.2953-0.70749 3.2161-2.4516-1.4098-7.3854-2.4828-6.7749 1.1578 3.5888 1.9705 9.2229 1.7658 11.338 5.4312-2.3193 1.3575-4.9296 2.2146-7.3751 3.3553 0.26749 4.1702 3.8724 1.2249 6.3675 0.34984 1.6238-0.62001 3.524-2.1771 4.3292 0.35774-0.70015 0.83935-3.5314 1.4423-0.18613 2.5367 2.9983 0.57068 2.6575 2.9036 0.13169 3.8647 2.1723 0.24226 3.819 0.19295 3.8339 0.67629 1.8593 1.1088 0.40638 5.2097 2.2289 6.2029-1.1173-4.4944-1.8056-9.1776-5.2886-12.873-2.829-3.474-5.2867-7.243-6.1659-11.706-2.3578-3.2014-3.5448-9.1923-8.422-8.816-2.1848 4.2914-3.8315 9.026-6.6619 13.022-2.9797 5.6575-7.0146 10.977-8.5641 17.242-0.69074 2.2848 0.47932 4.029 0.81583 6.0906-2.7419 1.5564 4.7321 0.24607-0.11474 1.0913-1.4808 1.1358 0.56902 1.5991 1.0829 2.6954 0.02288 0.73795 0.83695-0.99385 0.88755-0.9252zm8.9903-20.892c0.34802-0.94513 0.46881 0.62404 0 0zm32.279 21.981c-1.0777-1.2203-1.0616-0.73839 0 0zm-6.6308-0.7363c-1.184-1.6225 0.78002 1.5384 0 0zm-17.057-1.1906c-0.27001 0.34422 0.26515 1.7597 0 0zm13.167 0.14343c0.96415-0.7978 0.67216-3.2184 1.8106-4.6349-0.73954 4.1379-4.4956-3.5602-2.0641 0.98078-0.34338 1.1683-1.3998-0.82219-0.74304 1.03-2.655-1.6136-0.56896 4.4835 0.99661 2.6241zm8.7424-0.27572c-2.9979-3.1665 2.5996 3.1445 0 0zm-10.922 0.35277c-0.85303-1.2759 0.45351 1.2538 0 0zm9.0623-0.78674c1.5818-1.4161-1.2365 0.0827 0 0zm-20.227-1.0212c-0.27001 0.34422 0.26515 1.7597 0 0zm-0.17612-1.7618c-0.29534-0.18805 0.23384 1.8986 0 0zm17.79-0.81875c-2.17-2.5832-1.6235-1.3212 0.15925 0.46469l-0.15925-0.4647zm-31.022-0.8149c0.15273-0.94529-1.2377 2.2206 0 0zm13.058-0.0417c-0.2886-0.17532 0.23817 2.344 0 0zm16.399-2e-3c-0.27498 0.0109 0.16287 1.5612 0 0zm-33.808-0.22582c0.59172-0.97963-1.363-0.50221-0.12789-0.0581-0.32558 0.30863-0.93624 1.5836 0.12789 0.0581zm1.6312-0.46314c-1.0178-0.13555-0.43013 0.25075 0 0zm1.055-1e-3c-1.0977-0.17505-0.01358 0.30531 0 0zm3.1838-1.2342c5.5071-0.78734-2.9704-0.72244-2.1166-0.22128 0.76689 0.0846 1.3041 1.0731 2.1166 0.22128zm-13.326-1.4211c-2.1527-0.25741-0.42465 0.26035 0 0zm45.023-0.29304c-0.57109-0.81704-0.62124-0.13808 0 0zm-0.88194-0.88194c-1.1935-1.3914-0.26211 0.18728 0 0zm-32.191-0.82184c7.006-0.53616 14.037-0.19924 21.054-0.42964-8.7142-0.14204-17.454-0.22563-26.144 0.53861 1.6925 0.10034 3.397-0.065 5.0906-0.10897zm-14.861-0.65272c-2.4638-0.1537-2.4409 0.18826 0 0zm0.17881-0.69968c-1.8333-0.16077-0.57024 0.24032 0 0zm19.841-0.34192c1.8642-0.19106-1.1754-5.2333-1.7609-1.4458-0.29543 2.9102-8.6753 0.88946-4.5067 1.6498 2.0894-0.0409 4.1824-0.056 6.2676-0.20398zm14.948-0.44156c2.1885-1.1205-3.0902-3.7584-4.6091-3.0735-6.6947 1.644 2.4916 5.1784 4.6091 3.0735zm-23.371 0.12208c-1.6063-0.5132 1.0704 0.79114 2e-6 2e-5zm-7.2662-4.4167c-2.2194-1.2666-9.037-6.7161-5.4868-1.2416 0.6347 1.4827 4.3235 2.2917 5.4868 1.2416zm-8.5194-3.6172c4.2686-1.3364-3.9192 0.56344 0 0zm32.936-1.8823c3.5616-1.0158-5.7312-3.8169-1.8064 0.23255 0.19468 1.0494 1.3018-0.26094 1.8064-0.23255zm17.774-4.9111c1.188-2.7366-2.2835-4.095-2.0407-0.82104 0.91611 1.463 2.3048 5.9256 2.0407 0.82104zm-3.3514-8.6218c-0.87306-0.76418-0.36093 0.385 0 0zm-10.203 41.168c0.13253-0.97574 0.13216 0.97541 0 0zm-13.053-0.35278c0.1325-0.97559 0.13216 0.9753 0 0zm12.782-0.7276c-0.26661-2.1135 0.6145 1.7732 0 0zm-12.599-0.0662c0.13312-1.6853 0.51641-0.80203 0.0287 0.19159zm-4.6088-1.7639c0.34212-1.2902 0.77273-0.69214 0 0zm36.676-7.7993c-2.5925-1.7362-0.34279-1.8998-0.93916-5.0433 0.19903-23.731 0.42436-47.463 0.41072-71.195-1.0431-0.32715-3.2936-2.7633-2.7412-0.30353-0.0282 5.0361-0.0563 10.072-0.0844 15.108-1.4608-0.47642-4.7861 1.3959-4.2298-1.0545-0.0559-3.5274 0.14842-7.0772-0.18225-10.587-2.5406 0.15139-1.8877 2.4498-1.9344 4.219-0.30797 0.90688 0.77731 4.283-0.87733 2.8032-2.567-1.1878-4.7443-4.0245-7.7728-3.2878-3.2029 0.61418-8.5153 1.1282-4.9447-3.4198 1.4953-1.0657 0.26131-3.8916-0.95746-3.2776-1.0413 1.7273-4.0143 3.4554-3.6796 5.26 1.1387 2.0606 3.6132 3.944 3.4788 3.2898 2.8569-0.30189-2.0879 3.1301-2.5097 0.17427-1.71-1.1737-1.2953 4.0364-4.327 3.5443-3.4212-0.1435 3.05-3.2215 1.7579-5.4667-2.1568 2.0969-2.9469-0.10584-3.988-1.3322-4.1898 0.95032 8e-3 5.0853 0.15232 6.4041-3.982-2.4391-9.1626-2.2056-11.688-6.6583-0.9062-1.2487-3.3272-3.0076-3.5518-4.0105 2.2538-0.19065 9.146-1.126 3.7021-1.9699-1.7173 0.40146-4.3828-1.1705-5.3493 0.84084-1.2344 1.2591-2.0934 2.4933-0.15188 3.5427 1.1384 1.7249 6.9573 5.1596 3.1078 5.1958-3.3078-0.30163-8.8137 2.4098-10.909 0.32246 1.3233-0.62285-0.85376-3.2942 0.48081-3.1978 1.1827 0.7624 2.0758 2.529 3.6858 1.8093 1.8079-0.11178-1.5592-1.5552-2.0907-2.269-1.3661-0.39253-3.1648-2.9186-1.57-3.2435 2.3418 1.4414 5.5622 5.976 7.9071 4.6955-1.6072-1.6883-3.5181-3.2189-5.238-4.3325-2.1313-1.4351-4.2223-3.2438-2.9188-5.6328 3.3845-0.33079 3.4093 7.446 5.988 1.882 0.67122-1.7539 2.1425-1.9273 3.8146-1.7038 2.1647 0.14894 4.8322 0.0765 1.8278-1.9569-0.94186-1.2695-3.3494-2.17-2.0878-3.9862 0.80717-2.1929 1.8112-4.9473-1.4095-2.9878-1.714 0.39779-3.4268 1.9815-5.1385 0.83299-1.1547-0.72695-3.6127-0.49178-3.2308-2.353 1.7788-1.067 0.53001-5.4266 1e-3 -8.0868 0.83374-0.22701 4.4661 0.84889 2.7362 2.2751 0.3799 2.6194-0.16017 2.7422 1.922 1.7473 5.6522 1.8632 11.449 3.4693 16.996 5.5107 2.1572 5.293 3.6523 10.842 5.5982 16.219 4.3502-4.3526 8.1605-9.2933 12.256-13.919 6.4608-0.0348 12.926 0.0969 19.383-0.13229-3.3381-4.2111-7.1138-8.0723-10.318-12.39 2.0421-2.6019 8.3341-0.2502 2.7759 0.69104 1.3143 0.75244 2.7271 6.0367 5.1768 3.4331 3.1954 0.96084 0.30504-1.1612 1.3874-2.3888 2.847-1.7306-5.2838-2.1676-0.88848-2.7701 1.8205-0.02049 4.2014-0.5625 3.3682 2.0672 6e-3 7.4707 0.0122 14.941 0.0183 22.412-2.251-2.0852-2.7525-1.0961-2.4037 1.3927 0.0102 24.131-0.23416 48.262-0.38043 72.393 1.5165 1.2077 4.1916 4.3665 1.0038 1.3385l-0.44426-0.44684zm-37.255-68.771c-1.2404-2.1749 4.9794-2.9576 1.6169-3.788-2.8518 0.86557-2.8048-4.546-4.8877-2.0781-1.0883 1.8822-6.4524-0.0359-3.0044 2.7764 0.88394 2.4318 4.4534 4.286 6.1876 4.0944zm25.614-2.2374c-0.40556-1.8016 0.24992-2.9442 2.0672-3.3652 4.4752-1.3621-0.13594-2.7571-2.2196-3.3625-1.8104-1.1897-1.2417-7.5452-3.9886-3.1883-0.96138 1.3625-2.122 2.268-3.8594 1.8501-1.279-0.46614-4.0313 0.52353-2.3876 1.894 1.0667 1.1513 2.6327 2.2287 1.1684 3.7546-0.83092 1.6277-2.329 3.9598 1.0068 2.5482 3.0106-2.3419 6.5635 2.4357 8.1657 1.5272l0.0345-0.74447 0.0126-0.91457zm-22.401-2.7408c0.23708-3.925-5.2743-0.29194-0.68067 0.0356 0.11177-0.0778 0.61922 0.27914 0.68067-0.0356zm-5.1257-2.948c2.5462 0.0437 4.008-1.1386 0.64368-1.7716-1.9036-1.041-6.2739-2.161-2.3716 0.3971 0.99628 0.4022-0.79021 2.5146 1.7279 1.3745zm31.586-2.1546c-0.6082-1.5788-0.76044-5.3524-3.1105-4.983-3.0155-0.65243-0.49323 4.0016 0.4762 5.0942 0.88118 0.0771 3.0631 1.9261 2.6343-0.11121zm8.619 0.52917c-1.1662-1.754-4.6759-6.482-5.8538-4.1802 0.9868 2.0792 5.1683 4.4556 5.8538 4.1802zm-36.843-0.84794c0.10399-3.7488-3.4735 0.19378 0 0zm-2.6793-1.8556c2.8013-0.77427 0.76106-2.9582 0.16579-4.2972-2.5416 0.97002-4.06-0.25979-3.6257 2.4582-2.4327 1.8331 2.2974 1.5224 3.1168 2.2938l0.34316-0.45485zm21.064-0.82057c3.5021-3.104-1.8029-2.0886-2.3575 0.44553-2.7048 2.4082 2.2371 0.59728 2.3575-0.44553zm-26.874-1.1102c2.1051-3.9918-3.6982-3.7651-1.7419-0.26309 0.50646 0.49378 1.0865 1.4488 1.7419 0.26309zm44.472-0.17235c-0.70774-1.248-0.30588 1.012 0 0zm-40.05-3.1937c1.0633-1.0619-7.1292-3.1166-3.1003-0.21194 0.82912 0.65887 2.1823 0.76659 3.1003 0.21194zm-11.726-2.9514c3.6377-0.68232-2.6832-3.1519-3.0034-0.18191-0.73422 1.2923 2.5146 0.65399 3.0034 0.18191zm51.564-1.8365c-0.20815-3.1198-2.7487 0.99781-4e-3 0.77561l4e-3 -0.77561zm-7.3726 84.106c0.96513-0.84759 0.92375-0.15674 0 0zm-39.669-11.123c-3.0892-3.582-7.1813-2.055-11.069-1.4316-0.92834-3.23 3.966-1.9705 5.817-2.9962 1.6117-0.60852 3.0759-0.45035 4.3336 0.78157 2.0679 1.5344 7.9366 3.8302 4.7368 6.1465-1.2735-0.83212-2.5456-1.6664-3.8179-2.5002zm2.6271-5.1984c-3.4797-3.5887-8.1884-1.1773-12.441-0.85361-3.4683-0.29949 1.899-4.8923-1.2504-3.7163 0.10825-1.5738-0.83051-6.0029 1.4343-3.3546 2.5966 2.8869 2.7941-1.484 0.17168-2.6518-1.3122-0.98967-2.0212-2.2228-1.6728-3.8826-0.01498-1.0165 1.8832 1.433 3.196 0.53459 2.1968 0.14297 5.103 0.15986 1.5072-1.5313-1.5584-0.74229-3.1338-3.1322-4.6047-0.95533-1.0614-3.3516 1.1252-4.5924 3.4228-1.98 3.3643 1.0224 5.5852 5.9932 8.5319 1.9469 1.6831-1.2556 4.7417-6.642 3.8334-1.6272 1.0825 1.9739-0.0076 4.3611 3.1627 4.6902-3.3725 2.4428 3.3133 1.7121 3.5174 3.5619 0.13906 2.1011-0.43444 3.806-2.6219 4.2526-3.0692 0.57934-1.5468 4.2763-1.9789 6.4879 0.25643 3.2728-3.0585-0.78158-4.2076-0.92127zm2.2034-3.5069c-0.26649-1.8108 0.34485-3.0441 2.1942-3.4629 1.9956-0.89846 5.2267-2.3211 1.0378-2.7793-1.4293-0.70889-3.8478-0.4846-3.7743-2.6101-0.18009-3.4427-1.6085-4.2116-3.6898-1.1794-1.707 3.6138-11.891-1.5436-6.5518 3.6644 1.7713 1.3277 1.8064 2.6874 0.12226 4.0765-1.8544 1.9259-2.389 3.5293 0.81577 2.3723 3.5918-1.4833 6.6518 0.19371 9.5187 2.3476 0.32818-0.76574 0.24399-1.6195 0.32708-2.4289zm4.8172 0.95446c1.1294-2.7625-0.16295 2.0886 0 0zm30.374-9.2976c-3.7752-1.7579-7.5585-3.4984-11.342-5.239 3.6654-1.8536 7.3711-3.6308 10.989-5.5759-1.5918-2.855-5.5065 0.60179-6.35-1.3308 0.43647-1.4133 4.1695-2.0908 5.5152-0.89317 2.8856 1.882 1.0918-4.3999 1.5404-6.523-0.17009-2.0404-0.26285-3.868 2.293-4.2243 2.153-0.26083 0.57622 5.8303 1.0583 8.2417v5.6973c-3.1074 1.5504-6.2559 3.0228-9.3172 4.6624 3.0346 1.3745 6.0934 2.6949 9.1408 4.0405 0.40109 3.966-0.51851 2.4127-3.5277 1.1442zm2.384-4.669c-1.9812-0.53769-4.874-0.40247-1.0723-1.0246 2.1578-2.7174 3.0603 0.94728 1.6533 1.2615-0.19367-0.079-0.38733-0.15793-0.581-0.23689zm-47.892-2.3837c-1.6328-1.8256-4.6571-2.9756-5.6444-5.0966v-6.8556c1.0288-0.99138 2.8317-1.9912 0.78504-2.9491-1.6007-1.4371 0.95298-3.1675-0.14643-3.8474-2.2834-4.6945 6.2921-2.3704 9.0185-3.6647 1.6902-0.1138 7.6239-1.2023 6.6204-0.57175-3.2624 0.33746-5.3385 4.7494-2.1901 1.4902 1.168-1.4638 2.8432-0.64146 3.8673-1.1861-3.2071 0.26918-0.88645-0.35306 0.65432-0.28313-1.4612-1.4518-8.9498-0.39353-3.4975-1.5028 5.422-0.65193 9.7818 4.7627 15.246 2.9153 3.71-1.899 7.3605-6.6354 11.993-3.8949 0.96367-0.59363 4.7612 5.4849 3.0746 3.773-1.2784 5.9798 6.5418 1.5598 10.016 3.0614-2.5687 3.4587-8.3277 3.1942-12.451 3.9224-3.5853 1.6687 6.2619 3.6481 1.7401 6.9626-1.3 1.9434-1.4638-4.4109-3.8175-4.6822-1.675-0.99141 2.4831-1.7241-1.2131-1.4255-2.8477-0.62574 4.3056 3.6617 0.16413 5.2381-1.8159 2.1559-3.4792 8.2806-6.5679 7.125 0.34535-3.774-3.3181-1.878-5.6361-2.8345-0.59101-1.305 7.1642-2.2716 4.8852-6.3123-0.3037-2.3412 0.2661-5.3967-2.2459-1.9956-1.9593 1.7281-3.524 4.0349-4.5086 3.445-2.8565 1.4659-7.2431 2.6183-6.7808-1.4762-2.8845-0.50942-4.1877 5.8925-4.6581 2.2373-1.6134 5.1477-1.327-4.6647 1.3474-5.1222-2.0432-0.81358-3.4062 6.6512-3.1085 1.6488-0.023-4.1474 5.8278-6.7543 7.4017-7.8092-3.064-0.54701-6.6629 1.5516-8.0787 3.3328-0.22549-1.9803 2.5913-5.1794-0.05446-2.0894-1.0806-4.2872-2.7819 1.9061-4.9552 1.69-1.4192 0.24776-6.7433-0.66328-4.461 1.135 0.81074 1.1508 2.983 1.9916 2.8726 3.3521-0.60358 1.9146-3.1893 5.5932 0.73758 3.5458 1.6156-0.41928 3.2849-1.482 4.7475-0.14083 2.0814 0.24043 3.3211 4.1463 3.2788 1.7599 2.4437 3.709 0.25135-2.3865 3.6474-2.7674 3.8506-0.31473-3.0673 0.70681-0.2921 2.8412 3.0268 0.53886 5.563 1.3422 4.7085-0.62372 1.7452-1.0918 4.3461 1.8891 4.1365 3.0815-0.84145 1.6208-2.7031 0.31982-4.0968 0.35899-2.3609 0.20223-5.5894-2.0986-7.3937-0.0307-2.4636 1.755-4.6767 6.1077-7.4147 5.6274-0.5841-0.45082-1.1605-0.91425-1.73-1.3818zm5.1935-3.4955c0.61688-1.032 3.7155-2.5083 1.2913-2.996-1.713-1.7547-7.302-1.1061-2.8066 0.0848 0.35261 1.6218-6.2132 3.6188-1.4939 5.1102 1.0696 0.69694 2.0852-1.7766 3.0092-2.199zm-5.2002-1.5473c2.2915-0.85112-0.797-2.0691-1.825-1.2898-1.3732 0.59948-5.058-1.6236-1.6998 0.86997 1.2296 0.77993 2.3176 2.1126 3.5249 0.41984zm-2.9057-4.9802c0.06965-1.531-4.611 3.4725-0.40401 1.4082l0.19738-0.57329zm19.323 1.5764c2.142-0.62427 4.4029-2.3924 0.59391-1.279 2.1888-0.4662 9.5043-4.8523 3.614-2.4033-2.1514 0.13639-8.4594 1.7098-5.0312 3.9394zm-1.3867-0.21389c-1.5881-2.7101 3.0246-1.1683 0.44954-0.33126 2.2-0.87832 0.93809 0.89452-0.44954 0.33126zm3.3479-2.2666c0.3687-1.2963 4.5011-0.74281 0.47523 0.20868l-0.23624-0.0413zm-16.952-8.3182c2.4888-3.062-8.088 1.3126-2.2832 1.024 1.0207 0.0425 1.7269-0.0846 2.2832-1.024zm38 0.40277c-0.0851-3.4758-1.5946 1.4307 0 0zm-28.602-2.1806c2.0614-0.4833 7.8897-0.0889 2.993-1.7169-1.4196 0.3521 2.7513 1.0726-0.69086 0.93478-2.0845-0.55924-8.1629 2.9675-2.9881 0.96153zm22.819 20.581c0.0305-2.06 2.9-2.1781 2.2137-0.68814-0.89625-0.60401-1.595 0.11131-2.2137 0.68814zm-21.945-1.2376c-3.4113-1.4372 10.26-0.58133 4.266-0.32244-1.4201 0.12261-2.8404 0.29116-4.266 0.32244zm20.325-1.7578c1.7077-1.6619 0.71407-4.7212 3.0044-4.1986 1.0672-3.8686 2.7769 4.903-1.3624 4.1497-0.30265-0.0254-2.5572 1.4476-1.642 0.049zm4.4152-1.1426c1.181-1.6092-0.60114 1.8426 0 0zm1.6395-0.18673c0.54458-1.8832 0.14259 2.1185 0 0zm-15.93-2.6305c-2.5874-1.6374 0.69562-3.2232 2.0733-0.9651 1.9532 0.44337-0.16659 3.9453-2.0733 0.9651zm14.514-0.0696c0.21145-1.6888 0.52672 1.656 0 0zm-0.77788-1.36c-0.34384-1.2187 1.3534 0.62045 0 0zm-10.688-1.2597c-2.5598-0.43516 0.54705-3.5968-0.46833-1.2378 1.1558-2.53 2.4513-3.3252 0.85452-0.45006 1.0374 0.60922 2.3841 4.5786-0.38619 1.6879zm-16.896-1.8076c0.35127-1.1984 0.93815-0.53101 0 0zm25.892-1.6094c0.98616-0.15225-0.30355 0.30234 0 0zm-27.307-0.4639c0.41752-2.5406 1.812-1.9858 0 0zm33.46-0.2089c-5.031-0.17825 8.6159-2.2925 2.5187 0.21579-0.84817 0.0615-1.6833-0.10914-2.5187-0.21579zm-32.552-1.6566c0.28587-1.2934-1.5579-0.32307 0.52107-2.0483 3.3123-1.8222 2.6273 0.12063 0.37828 1.7085l-0.55188 0.44976-0.34748-0.10986zm3.4015-3.0379c0.29277-1.4316 1.2191 0.88759 0 0zm30.093-0.11257c0.27042-2.08 2.0606 1.0597 0-1e-5zm-28.581-0.39688c1.0838-0.67311 0.85318 0.50485 0 0zm29.012-1.7646c-2.1685-1.3532-2.5511-2.432-0.17157-0.65709 0.55883 0.26408 2.1391 1.7994 0.17157 0.65709zm-34.48 0.22442c2.2658-2.1667 2.0438-0.93182 0 0zm23.901-5.3315c4.1108-1.5316-1.2073 0.85214 0 0zm-10.138-15.133c-0.72816-4.6504-3.1018-7.9679-8.1111-8.2768-2.6926-1.0584-6.9191-1.682-8.5753-3.1288 2.0996-1.3675 4.1478-3.1113 6.3685-4.1658 1.9516-0.05307 3.3987 0.03358 0.91345 1.2091-1.6909 1.2379-6.1487 3.0434-1.6037 3.5069 3.4645 1.0677 6.932 2.126 10.387 3.2252 1.1322 3.3541 2.1083 6.768 3.423 10.055 2.71-2.7589 5.1728-5.7525 7.7816-8.6083 3.9745-0.02617 7.9497-9e-3 11.924-0.08698-1.6374-3.0925-6.2104-6.1528-6.1934-9.2312 3.272-0.24631 4.4841 5.861 7.521 8.0452 1.7273 1.8019 3.0554 3.7022-0.57424 2.9719-3.983 0.05052-7.9664 0.02332-11.95 0.03031-3.0364 3.5148-6.1455 6.9673-9.2666 10.407-0.72138-1.97-1.3682-3.967-2.0439-5.9531zm2.4653-5.9955c-0.7398-1.2216-0.36618-3.5959-2.1303-3.757-2.8725-0.89241-5.8254-1.5641-8.6294-2.6466 2.0603-0.88341 3.9012-2.6717 6.0542-3.1656 0.77979 0.21122 4.5974-0.32034 3.0618 0.457-1.848 1.0517-6.4062 2.9506-1.5798 3.259 1.4996 0.61952 3.9063 0.22608 4.0574 2.3453 0.53553 3.2199 2.0528 3.1851 3.5209 0.26219 0.72127-1.8503 2.7056-1.0513 4.2361-1.2126 4.8603 0.44576-1.4506-2.5166-0.68391-4.4493 0.14924-1.1364 3.8135-1.0674 2.1304 0.41024 1.6402 1.9199 3.3252 3.803 4.9109 5.7684-2.8026 0.21674-5.6228 0.0928-8.4334 0.1255-1.73 2.043-3.3358 4.2094-5.2542 6.0791-0.51119-1.1203-0.85383-2.3148-1.2606-3.4757zm-24.611-4.9924c1.2178-0.32546-0.22517-0.10737 0 0zm1.2443-0.58613c2.7063-1.8916 3.0322-1.4677 0 0zm0.43612-3.0033c0.87305-0.76422 0.36096 0.38506 0 0zm1.0583-0.70283c0.81173-0.95086 0.6517 0.46852 0 0z" fill="#1a344e"/><path d="m78.158 200.1c0.88447-1.9201 1.5839-2.9221 0.43016-1.8693 0.8112-2.7156 2.8143-0.25376 1.8516 1.3879 0.79294 0.5134 4.76-2.5806 5.7093-4.6269 1.4867-1.1852 0.37309-3.005-0.28819-4.1443-0.36708-1.2792 3.4582-3.2548 1.4783-4.4711 0.30112 1.9133-4.3795 5.2611-4.7635 4.043 1.7091-0.85382 3.1379-2.5002 0.87396-0.81714 1.611-1.5921-1.2221 0.0282 0.84762-1.5832-0.94516 0.71371-1.6115 0.74632-1.5439 0.49015-0.51582-0.35272-0.80817-0.29454-2.7214 0.74919 1.3332-2.5965 4.8443-2.7476 6.5355-3.0197 0.26934-4.2575 4.4237-6.7318 5.0856-10.958 1.4646-3.4683 1.8087-7.4649 4.3154-10.417 2.0503-2.7714 3.9277-5.7199 4.0226-9.282 2.6425-4.9157-4.7245-5.072-5.3328-8.6313-4.5866-5.6032 4.5402-3.1942 7.3161-5.1599 1.9181-2.1889 4.0758-1.115 6.5579-0.89879 2.48-0.83016 0.52915 5.3404 3.5146 2.3536 2.0928-2.0832 2.9244-1.8606 1.9812 1.2293-0.47022 2.7336 2.1527 4.7764 3.272 7.1144-2.3875 0.97161-0.26668 3.0672 0.0192 4.7738 2.619 8.7236 7.4344 16.56 11.322 24.745 1.0406 1.7318 4.3285 8.5651 4.6914 6.729-1.7606-1.3829-3.7236-5.1667-3.9142-6.4646 0.80277 1.2087 5.5982 5.6882 2.144 2.1619-4.2545-4.6823 1.9862 1.7324 3.206 3.0736 3.7896 3.81-3.2568-2.9784 0.19742 0.58154 0.90672 1.3671 3.2978 2.1126 2.807 4.0509-0.0279 1.7948-0.0559 3.5896-0.0838 5.3845-1.8774-2.0092-3.3992-4.548-5.6362-6.0778-1.903 0.47254 0.2555 5.3177-1.9229 3.2306 1.5988 4.3516-4.4031-4.9141-0.97554 0.35083 2.0698 2.1857 0.0618 1.2987-0.42128 1.7406-0.16221 1.6512-1.0663 2.068-1.5396 2.2922 0.81051 2.0943-0.62624 0.92826-0.49732 1.2552 0.68316 2.0076-3.5869-6.425-1.0761-1.3281 1.9921 3.2869-2.5132 1.5979-4.4712 2.1825-2.5 0.094-6.221 0.12866-3.2225-1.1449 0.16432-2.4632-1.5263-6.0953-2.6956-8.7455 0.26494 3.7185-1.9297-1.6979-1.4653 1.6536-0.34435-0.39197-1.3744-0.90213-1.3562-1.2894 6e-3 2.0496 0.86578 8.6632-0.11362 3.1747-0.73279-1.879-0.92634-6.6902-1.3808-7.1501-4e-3 2.9914 1.5757 10.179 0.42733 10.598-0.34818 0.7003-0.54541-1.6469-0.67386 0.70555 0.033-1.8539-0.44366-3.6879-0.47311-0.46095-1.0955 2.4029-0.47699-2.8155-1.9986-0.1485-0.34074 3.3777-0.76721-4.95-1.2121-0.36069-0.15129 0.42337-0.67736 1.0698-0.74525 1.5959-0.0167-3.3997 0.63641-6.7605 0.82284-10.151-0.24068 2.3936-1.4804 2.8972-2.3974 2.0286 0.68022-3.3443-1.0399 2.0168-1.698-1.1356-0.77384 2.2989-0.0641-0.34122-1.1838 1.5765 0.11761-1.4955 0.33789-2.66-0.7883-0.61737 1.0639-5.3937-1.6066 2.4641-2.483 4.0393-1.4688 1.4696-0.95439 5.7094-3.3438 5.7603-2.4943 0.13394-6.5487 0.22005-6.2684-1.3142-2.6884 1.419 2.0592-5.3401-1.0685-1.8877-0.15682-1.8417 0.64364-2.3914-0.15789-3.1328 1.8658-2.7363-2.4313 3.0696-3.2949 3.6795-1.5943 2.4136-0.90018 3.2923-6.2206 2.5551zm4.2033-0.79243c-0.37496 0.19993-1.0905 1.3926-0.30974 0.49057zm8.1665-0.35217c0.43772-1.0588-1.6596 2.5641 0 0zm29.278 0.24726c-0.2927-2.012 0.51109-1.4259 0.90525-2.714 1.4763-2.2664 4.1264-2.8769 1.1614-5.6513-0.21354-1.3437-4.0554-4.7525-0.87662-4.141 2.3334-0.76639 3.7803 1.5328 2.6022 2.0347-1.0466 0.69307-2.789-0.83802-0.80447 2.2014 2.0014 4.5407 2.7442-0.97986 3.8512-2.5171-1.1767-4.313-0.99998-9.0482-4.2717-12.655-2.7453-4.0539-6.2517-7.793-7.1148-12.804-2.2144-3.4662-3.638-9.6421-8.6316-9.4552-2.3352 4.1745-3.7055 8.9685-6.6185 12.861-3.0235 5.5314-6.7386 10.851-8.5881 16.912-1.249 2.6139 1.4793 5.1396 0.02779 7.346 4.3895-0.3797-1.911 0.69344-0.02701 1.8643 0.36506 1.1819 2.4986 2.601 3.3231-0.8401 0.4768-1.8656 3.0975-4.8245 0.0986-2.8881 1.0966-2.4923-0.51944-0.0431-1.0304-1.3243-2.4551-0.61547 7.4986-2.7272 3.0507 1.1057-1.6441 2.6251 3.7641-3.6444-0.02063-2.3616-1.5438-0.42307-4.7889 0.69718-5.432-0.51738 0.61706-4.1217 7.5878-1.072 10.825-1.7933 6.716-2e-3 13.446 0.28944 20.165 0.0615-8.286-0.35235-16.59-0.41693-24.774-0.6567-1.6571 0.61331-8.45-0.3289-4.3517-1.4853 8.6365-0.34903 17.267-0.71535 25.916-0.63863-2.267-0.20061-7.396-0.17316-10.7-0.17995-5.4057-0.0507-10.8 0.27904-16.192 0.62456 1.8194-2.7121 6.9316-0.70208 10.034-1.5091 3.4879-0.0214 7.5418-0.25531 11.252 0.0119 1.8356 0.0375 3.7913 0.50101 5.2355-0.9493 0.9497-1.0597-3.2108-2.9566-4.6866-3.0311-3.8372 0.36169-2.3305 3.3523-1.0224 3.7329-1.8573-0.0491-4.2106 0.49755-4.3226-2.0299-1.476-3.7574-2.8508-7.563-4.55-11.227-2.8554 1.8223-4.3832 8.623-7.8419 7.0952 2.5326-4.6803 6.1379-9.1472 8.9157-13.835 2.0643-1.9613 2.9726-8.7575 5.5579-3.386 0.78895 1.4501-4.2986 3.0207-0.1735 3.6784 2.1225 1.3444 2.6756-1.8244 3.513 1.4515 2.4053 5.4401-6.5385-2.9336-7.9645 0.87219-2.1706 3.1962 5.3594 2.9655 7.4271 4.5762 2.8831 0.22844 4.9981 3.473 0.84858 3.8003-2.2051 0.68079-6.8248 2.4686-3.4016 4.5883 2.7354-0.27506 6.2956-3.9824 8.548-2.7218 2.5784 1.8848-4.1075 1.8104 0.25018 3.3637 4.4882 0.39896 1.7116 4.0173 6e-3 4.2093 2.8654-0.26253 6.6053 0.73573 2.1994 0.85893 0.45696-0.11494 4.8968-0.0494 2.9954 2.937 2.7645 2.8398-0.33304 6.638-0.79122 2.59-1.2456-0.31034-8.0872-0.32999-7.9271-0.18566 1.8206-0.35261 4.129 0.47696 3.5025 2.5802-1.3718-1.3122 0.12421 1.8969-1.4038-0.50827 0.8076 2.6704-1.9968-1.9742-0.29828 1.4426 0.025 0.85106-1.2494-0.94804-0.70153 1.7231-2.2623-5.2128 0.22321 3.6565 0.99025 5.3278-0.34861-1.6074-1.8229-6.2735-0.36818-2.3354 0.36593 0.67771 1.8562 6.1052 1.6846 4.4912zm-27.844-11.49c-2.2377-2.2841 4.0648-1.6777 0.4847 0.26458l-0.18861-0.0222zm1.2769-8.0025c1.2597-1.209 2.4968 1.3023 0 0zm1.7872-0.17653c-2.619-0.40026-0.25534-4.7868 1.2829-2.3048 3.6344 4.3561 4.8601-3.5314 7.0363-4.3528 1.0574 1.8746 3.6952 8.897 0.35368 6.0344-0.88758-5.3283-2.7264 3.1354-6.3448 0.95556-0.77879-9e-3 -1.6339 0.10828-2.3281-0.33228zm8.1927-7.7571c0.11329-0.67993 0.1791 0.80291 0 0zm-11.832 25.856c0.4325-1.252-0.83864 1.2658 0 0zm4.0789-3.0547c0.63746-1.7949-1.4632 2.4534 0 0zm-1.6334-0.10562c1.6304-1.6858 1.4117-3.824 0.07236-0.89661-0.61604 0.80366-1.6224 2.3606-0.07236 0.89661zm2.6698-1.7786c1.0614-2.4938-1.4623 2.5144 0 0zm20.229 0.3197c-0.3024-0.30324 0.15221 0.98617 0 0zm-21.199-1.9072c0.74763-1.8687-1.1502 1.8877 0 0zm1.743 0.25542c0.01461-0.74246-0.52335 0.87952 0 0zm-1.1256-1.3138c0.43251-1.252-0.83865 1.2658 0 0zm31.652-0.57907c2.753-2.6365-1.4593 0.0847 0 0zm-5.1719-0.87908c-0.54207-0.42979 0.52569 0.94695 0 0zm5.0811-0.70145c-1.2574-3.764 2.9617 2.3517 0.85985-0.87386-2.048-3.4231-0.9224 3.155-0.85985 0.87386zm-25.746-1.1036c-0.61528 0.12835-0.17135 1.1381 0 0zm-1.8589-1.519c0.81322-0.6991 3.4378-0.91507 0.39659-1.0371-1.0834-0.0639-8.6564 0.71025-4.8445 0.69615 1.8683-0.37464 2.0239 1.1214 4.4479 0.34091zm4.6865-0.50945c-1.5628-0.59692-1.1304 0.43573 0.0627 0.1339zm7.1541-14.988c3.9786-0.92201-4.9707-3.9906-1.9362-0.20668 0.16358 1.6427 1.0689 0.41878 1.9362 0.20668zm-15.234 29.627c2.3549-1.7446 0.80514 2.696-0.1705 0.41025l0.09834-0.23661zm1.9063 0.7287c0.26549-1.3735 1.6413 0.91428 0 0zm7.1-0.46257c0.0641-1.3422 0.16579 1.4034 0 0zm6.6927 0.17639c0.08-1.0059 0.16932 1.0896 0 0zm17.017 0.32338c0.2102-1.4559 1.9982-2.8437 2.2112-3.1091-0.88365-1.953 1.3949-3.9126 0.69964-6.2066 1.8937 1.9818 3.6291 4.1095 5.4366 6.17-0.28582 1.2284 0.87012 3.8978-1.2796 3.2632-2.3554-0.0218-4.719 0.068-7.0679-0.11759zm-1.7051-0.76435c-0.43249-1.252 0.83865 1.2658 0 0zm-21.831-1.2347c0.0979-1.2042 0.0979 1.2042 0 0zm-28.616-0.30929c0.76079-2.2869 5.0773-4.2392 1.4628-0.76679-0.29216-0.0493-1.7404 2.1471-1.4628 0.76679zm0.70556-0.30808c1.2455-1.5681-1.66 1.5922 0 0zm53.247-0.74965c-0.60885-0.8666 1.0833 1.0535 0 0zm-0.52917-0.70555c-0.54489-0.79409 0.98447 0.93891 0 0zm-52.365-0.45207c1.5266-1.6293 1.3426-1.0495 0 0zm1.5875-1.4111c1.5266-1.6293 1.3426-1.0495 0 0zm1.9403-1.7969c1.6683-1.5944-1.255 1.567 0 0zm22.592-1.2494c0.11329-0.67993 0.1791 0.80291 0 0zm-27.178-0.64345c1.8405-1.5507 1.0308-0.86537 0.13057-0.99405 1.9578-1.4845-0.99382 9e-3 -0.13057-2.8985 1.1033-0.63479 4.327-0.30887 5.4423 0.0143-1.8406 1.2504-3.6183 2.6194-5.4423 3.8782zm58.882-3.3906c-1.4976-1.0001-1.7536-2.4907-1.5144-4.1769 0.15573-24.245 0.32933-48.491 0.31145-72.737-2.4106-1.9159-3.4157-1.0635-2.8079 2.1859-0.0444 4.2396-0.0689 8.4793-0.10233 12.719-1.29-0.19231-3.3436 0.36456-4.197-0.25619 0.041-3.8147 0.23317-7.6329 0.0899-11.446-2.5739-0.0592-2.234 2.0737-2.1546 3.8854 0.10922 2.1534 0.28968 4.805-2.243 2.3153-2.3437-1.2706-4.3385-3.6786-7.1793-2.3564-1.3238-0.48204-6.0242 1.6196-5.1824-0.7856 1.2541-1.4891 2.6748-7.1005-0.15723-5.8176-3.2924 2.5974-4.3069 5.71-1.3777 8.2871 0.59519 0.32178 3.7713-0.0977 0.83411 1.5181-1.3754-2e-3 -3.5505-3.9231-3.522 0.24181-1.1352 2.7594-5.8285 2.2151-2.0612-0.25735 1.1835-1.4099 1.8732-4.9198-0.75306-2.2377-1.8418-0.32195-1.0189-4.3364-3.3549-1.5559-3.5245 1.6127 4.7976 7.5489-0.93255 4.6485-4.2238-1.3162-7.9313-2.9563-10.548-6.7809-2.0666-1.6846-3.2223-3.3534 0.35013-3.1442 1.7923 0.0439 5.3076-0.84566 1.6769-1.6894-1.8973 0.41145-4.8848-1.27-6.0466 0.802-4.7175 3.1794 5.6948 6.7046 3.5875 8.6935-3.7225 2.2e-4 -8.9928 2.0685-11.598 0.55549 1.2716-0.82291-1.2479-4.7942 1.4993-2.3812 1.4168 1.872 4.9841 0.89356 1.5084-0.71838-0.93425-1.1094-3.2223-1.5001-2.973-3.2364-0.07635-2.5706 3.9339 3.0183 5.3541 3.4087 1.817 2.081 4.5422 0.63013 1.2377-1.1399-1.9783-2.47-6.8113-3.4616-6.6266-6.6857-0.44244-3.7201 3.9986 0.31174 3.8356 2.2818 1.8003 1.3978 2.3307-4.1199 4.6859-3.5907 1.7733-7e-3 3.5466-0.014 5.32-0.021-1.4891-1.4993-2.9782-2.9986-4.4674-4.4979 0.27242-1.824 3.3086-6.8706-0.42956-4.6775-1.8918 0.37107-3.7814 2.2771-5.6722 1.0517-1.1198-0.73373-3.554-0.49255-3.2555-2.2783 0.67592-0.46593 1.4771-0.9668 1.0415-2.8921 0.49823-2.1077-0.67194-3.0494-1.0588-4.713-0.22161-2.0086 4.5081 0.73291 2.7777 1.8776 0.12348 2.854 0.07075 2.256 2.0305 1.6661 5.6407 1.8543 11.315 3.6048 16.976 5.3955 1.8319 5.4927 3.6081 11.004 5.5051 16.475 4.2339-4.5518 8.1598-9.4159 12.254-14.107 6.5294-0.0304 13.059-0.0608 19.588-0.0912-3.5905-4.1197-7.2129-8.2172-10.625-12.486 0.76039-1.1087 6.4717-1.8537 5.1076-0.10139-4.6699 0.5519 0.28415 3.147 1.1653 5.2642 1.6347-1.6791 4.6649-0.02591 2.9036-3.005 3.3712-1.8231-4.7101-2.7982-0.87442-3.1655 2.4423 0.19646 4.8894-0.66701 3.4102 2.9913-0.20405 6.8472-0.0301 13.697 0.27137 20.526 0.22018 2.3716-3.4221-2.3688-2.5153 0.95806-0.0768 24.616-0.18742 49.231-0.30339 73.847 1.2931 1.1869 4.1691 4.4306 1.2106 1.4341zm-37.886-69.295c-1.137-2.3689 5.3182-3.1532 1.078-4.001-2.5802 0.76153-2.287-4.5809-4.2595-2.0299-1.0736 2.1312-6.8077-0.0982-3.1168 3.071 0.82377 2.0467 5.4898 5.16 6.2853 3.5273l0.01294-0.56734zm25.57-2.3012c-0.40429-1.8096 0.24471-2.9531 2.0836-3.344 4.5983-1.3068-0.15369-2.8519-2.2533-3.4148-1.6722-1.5436-1.4202-7.4716-4.2352-2.962-0.93237 1.2775-2.073 2.0573-3.7024 1.6696-4.2711-0.58396-2.4625 2.4055-0.53743 4.0852-0.47331 1.9242-3.6784 5.8015 0.62029 4.1012 1.7903-0.33366 3.6687-1.1546 5.0482 0.50329 1.9852 1.169 3.362 3.1227 2.9762-0.63848zm-22.269-2.6273c0.59957-3.6167-5.616-1.1626-1.4145-0.19536 8e-3 -0.25736 1.5554 0.84324 1.4145 0.19536zm-5.0717-3.0212c6.7838-0.19773-3.1087-3.5831-3.8232-2.9709 0.79699 1.3548 3.2974 1.348 1.7572 3.158 0.69727 0.0405 1.3716-0.17693 2.066-0.18711zm39.232-2.7032c-1.0759-1.6163-3.5414-5.4868-5.115-3.1386 0.80303 2.1567 5.4126 4.6 5.9459 4.2517l-0.36869-0.50596zm-7.6557 0.60907c-0.6796-1.62-0.93805-5.3803-3.2923-5.0712-4.5-1.0058 2.1342 9.0462 3.2923 5.0712zm-28.285-0.44097c-0.31841-3.7334-3.7743 0.53842 0 0zm-2.6612-2.0093c2.6341-0.5018 0.79108-3.287-0.02803-4.1277-2.5892 1.034-4.021-0.29388-3.6233 2.5118-2.3231 1.8563 2.3769 1.3466 3.0833 2.3523zm20.999-0.69095c3.531-2.3217-1.1093-2.6956-1.8588-0.27193-3.2666 2.8304 0.87394 2.1605 1.8588 0.27193zm-27.01-0.90881c2.2217-3.6397-3.1868-4.6347-1.916-0.65488 0.58152 0.4989 1.082 2.062 1.916 0.65488zm44.539-0.22739c-0.67938-1.7444-0.32175 1.5075 0 0zm-39.571-3.7042c-2.0913-1.0699-7.2568-2.5956-3.1823 0.57335 1.0267 0.3527 2.5081 0.46747 3.1823-0.57335zm-11.974-2.5529c3.3602-0.73814-2.9295-3.1416-3.2387-0.20729-0.81292 1.477 2.6377 0.59595 3.2387 0.20729zm51.369-1.7686c0.54512-2.6607-3.53-0.44349-0.3535 0.95429 0.6276 1.0906 0.13809-1.1964 0.3535-0.95429zm-58.208 88.217c-0.41116-1.9807 0.21274-2.9639 2.3046-2.5326 2.2598-0.0837 4.5196-0.16745 6.7795-0.25118-2.4864-0.0613-4.9791-4e-5 -7.4607-0.15748 3.3928-0.34575 6.8027-0.50996 10.198-0.83403-0.42967 3.1706-8.7094 1.229-7.3081 2.1123 1.6951 0.19904 4.7143-0.46783 5.8037 0.0409-1.2801 2.5146-4.8102 1.1538-7.181 1.6705-2.8518 0.11944 1.1181 0.0366 2.0469 0.0439 1.3212 0.27806 3.8139-0.62362 4.3419 0.45316 0.25805 2.7333-2.4647 1.7309-4.1548 1.9017h-5.3702v-2.4472zm53.46-2.0365c-4.1026-1.2313 1.0857-2.2004-0.84967-4.9198 0.46381-2.1863-0.59261-7.8159-2.7848-7.2413-0.4986 2.1136-1.8597 5.8954-2.8793 1.8008 0.82636-3.4324-0.0164-9.6512 3.868-11.013 3.5016 9e-3 2.6495-4.4483-0.47816-2.3725-4.0429 0.93001-5.18 4.1226-5.2596 7.9062-1.5355-0.19551-3.9356-5.4132-1.4481-3.4124 0.33106-1.858 0.12352-3.9498 2.4349-4.323 4.6264-1.8729-2.7094-1.2223-2.513-3.9406-0.16332-3.7726-5.1236 2.6015-3.9557-1.5568 2.3696-1.1338-3.0113-5.2008 1.272-2.7206 4.2674 1.7898 8.211 4.5894 12.747 5.5925 1.9949-0.0574 0.60344 3.1278 1.0962 4.4727-0.0139 7.6192-0.0691 15.273-0.11723 22.871-0.37744-0.38105-0.75487-0.7621-1.1323-1.1432zm-0.82643-14.845c0.70295-1.8506-0.18952-7.5589-2.1919-3.651-0.22029 0.90011 1.4397 4.1128 2.1919 3.651zm-3.2443-10.618c-1.5988-1.2044-4.6807-2.1818-1.2964-0.45692 0.37843-0.0609 0.94907 0.94109 1.2964 0.45692zm-46.302 23.964c1.3827-1.5129 7.055-3.2187 2.0951-3.8215-2.6157-0.18289-2.0014-5.7863-4.3184-2.0861-1.9566 1.8806 0.08033-2.6417-0.86352-3.6956-0.64565-1.9979 1.8305-1.4238 3.0363-1.8964 1.6047-0.76199 2.9233-0.0339 4.1847 0.99136 2.3121 1.493 4.6344 2.9706 6.9308 4.4879-0.91398 4.2911-6.7426 6.2452-10.786 6.0673l-0.27892-0.0469zm6.8079-4.5501c0.18746-1.5278-5.1057-4.1499-6.4617-4.5369 0.98558 1.7311 1.3177 4.334 3.7994 4.2573 0.86632 0.0293 1.883 0.97948 2.6623 0.27962zm-7.226-4.2957c0.46302-1.1455-4.1323 0.83062-0.56595 0.23014zm8.4016-3.012c-1.4337-0.79824-2.7661-2.1128-4.2623-2.5923-2.2412 0.36251-4.5951 1.0863-6.7538 1.2253-0.94581-2.4444 1.9951-1.8648 3.4643-2.4003 4.426-2.2465 7.9608 1.1717 11.554 3.4016 2.4503 1.7658-0.83698 4.2417-2.4357 1.3926l-0.75855-0.49598zm2.7874-5.1022c-3.6575-3.6867-8.5472-1.1704-12.959-0.85878-2.8959-0.15229 2.7892-5.7267-0.89893-3.4v-4.7542c1.2658 1.4369 4.7595 4.0004 3.4614 0.28945-0.87594-1.6584-3.6451-2.4778-3.4601-4.548-0.79571-3.2945 3.6885 0.94168 5.7142-0.48899 3.1593-0.093-3.3881-2.8815-4.1941-3.6824-2.3347 3.5804-2.0613-4.6946 0.38168-1.9063 3.0323 1.2784 5.7557 4.6894 8.3969 4.3686 2.1587-0.32646 6.0106-8.3852 5.5364-2.989 0.92792 1.862 0.02722 4.601 3.0372 4.5489-4.1015 3.1095 6.3733 1.3073 3.3904 5.5737 0.17671 2.7271-4.7882 1.7203-4.2395 4.4651-0.31737 2.2577 0.77401 7.6179-2.7235 4.2588l-0.69908-0.42083-0.74428-0.45622zm2.0783-2.3246c-0.19232-2.2825-0.15847-4.2778 2.4287-4.7117 1.8533-0.84965 5.1142-2.052 1.2171-2.6175-4.0316 0.28277-4.2051-4.2075-5.4838-6.0052-2.6032 4.0716-6.8192 3.6375-10.923 3.2838 2.1247 2.5212 4.8297 5.0992 1.2524 7.6896-2.7433 3.1922 3.3921 0.70516 5.2022 0.71067 1.7846-0.63956 2.9845 1.4546 4.5019 2.081 1.4434 0.89487 1.765 1.7377 1.8045-0.43057zm4.8841-0.24298c0.82195-2.393 0.21998 0.88973 0 0zm28.569-10.132c-2.729-1.5822-7.6992-2.926-8.9116-4.6405 3.0129-1.9646 8.1486-3.3526 9.9851-5.6263-1.4132-1.5111-3.1996-0.80626-4.9082-0.40567-3.0955 0.10333 1.1773-2.3872 2.9496-2.1016 1.6032 0.33406 3.7152 2.734 3.0041-1.0292 0.34025-3.6404-1.5651-8.7304 3.3486-9.6791v14.414c-3.1033 1.5859-6.2795 3.0412-9.3019 4.7767 2.9866 1.4058 6.0237 2.7017 9.0373 4.0484 1.0596 5.0558-2.8206 0.65174-5.203 0.24363zm3.7463-4.0022c-2.9354-0.49483 3.8117-3.3316 1.3638 0.40686l-0.45732-0.052-0.90648-0.35484zm-2.3352-0.21895c0.35399-0.76878 1.5176 0.67714 0 0zm-46.146-2.8485c-1.7571-1.9272-5.5324-2.8885-4.6537-6.0722 0.12808-1.6845-0.25953-3.5911 0.18616-5.1389 3.007-1.5099 0.17086-2.8428 0.24179-5.2907 1.5399-0.90151-2.3532-4.5656 1.5053-4.0575 5.0986-0.51331 10.167-1.2922 15.265-1.8021-1.9598-0.73279-6.1436 3.8874-4.506 2.7357 1.5096-2.4034-1.4123 4.8898-1.6089 0.33998-1.9051 0.71125-2.5249 3.8632-4.8087 3.437-2.7891-0.19907-6.0992-0.0138-2.3986 2.5556 2.3505 1.1848 0.97478 3.2114 0.12482 5.0291-0.37342 2.4703 4.0544-1.0345 5.7184-0.2505 2.154-0.0478 4.3671 4.729 4.4804 2.279 2.1241 3.8996 0.42777-2.7243 3.8444-2.8185 3.3245-0.0278-3.8072 0.83069-0.50961 2.9137 2.0374 0.37891 6.8359 1.84 4.5571-0.55354 1.6346-0.99303 2.5361 0.62502 3.608 1.6365 1.892 0.80735-0.26054 2.6942-1.5407 1.9691-2.7793-0.37678-5.5432-0.85607-8.3107-1.3097-2.6067 2.3663-5.009 4.9565-7.687 7.2389l-3.5072-2.841zm6.1501-2.458c3.8899-2.154 1.0369-3.6364-1.7275-4.5815-2.2417 0.40811-2.2059 0.89338-0.0054 1.4519 1.7617 1.0528-5.5755 3.1854-2.0908 4.6373 1.5321 1.9565 2.5447-0.76218 3.8237-1.5077zm-5.3109-1.5043c2.8393-2.9082-3.1898-0.40633-3.9729-1.9266-3.2493-0.96414 3.7311 4.7144 3.9729 1.9266zm-3.0216-3.993c2.1523-4.1535-4.8407 1.9726-0.21722 0.56987l0.2172-0.56987zm4.5942-10.319c2.3648-3.3655-8.4382 1.5458-2.0727 1.0142 1.0411 0.22447 1.47-0.2331 2.0727-1.0142zm-4.5322-0.30868c-0.84018-0.94795 0.22559 0.94111 0 0zm37.336 18.182c1.3269-1.8807 2.7257 0.51132 0.039 0.30273-0.86208 0.83262-0.55299 0.37757-0.039-0.30273zm-6.4572-0.0581c0.4263-4.3001-3.6161-1.9386-6.1143-3.0858-0.0824-0.80844 3.7818-1.492 4.8369-2.5646 0.92058-2.0243 0.51527-7.0722-0.36675-7.1422-2.7104 3.4802-6.4444 5.8233-10.851 6.3857-2.6006 0.46779-0.35467-5.1668-3.7594-2.1586-1.9026 0.58682-2.348 4.6885-2.7347 1.318-2.4103 4.8253-0.10027-5.3287 1.2357-5.2015-2.4274 0.15062-3.3541 6.6448-2.9626 1.5898 0.29609-3.9786 5.8841-6.5263 7.4816-7.5146-3.0617-1.1549-7.5775 2.8054-8.1723 2.8955-0.03107-5.0182 7.7553-4.1637 9.6092-4.9538-1.8056-1.5468-5.6617-0.69463-3.0661-1.317-2.0523-1.1256-8.2082-0.75989-2.5922-1.3942 5.1882-0.01 9.6792 5.0735 14.954 2.7484 3.4588-2.5864 7.3957-5.8601 11.917-3.7819 2.2814 1.8688 3.0121 4.5162 2.8852 6.9833 2.7578 0.53703 8.3112-1.367 9.4369 0.58401-3.7052 3.0111-8.7383 2.206-12.951 3.6297-1.6967 1.1477-5.4774-0.56298-2.0141 2.0123 2.4567 3.0338-2.877 5.5732-3.2123 8.8559-0.534 0.42785-3.2168 3.4219-3.5592 2.1116zm-11.346-7.0752c1.7279-0.42277 4.0342-2.0284 2.0746-1.8386 2.1929-0.3178 7.6646-4.6502 2.5297-2.0447-2.0922 0.74434-8.3191 0.83259-5.8777 4.2116l0.50563-0.0965 0.76777-0.23191zm-1.4119-0.25485c-0.96468-2.6388 2.5206-0.83782 0.42448-0.21908 2.5769-0.75754 0.54426 0.62223-0.42448 0.21908zm3.3469-2.3127c1.596-1.2622 3.7056-0.6102 0.41721 0.22219l-0.22988-0.0402zm21.088-7.7683c0.23087-3.5141-2.0915 1.231 0 0zm-28.585 16.868c0.68859-0.99217 11.269-0.42678 4.4881-0.12706-1.493 0.0431-2.997 0.32788-4.4881 0.12706zm21.067-1.0866c1.8105-2.1779 0.91504-4.9961 3.5619-5.0282 0.35302-2.4921 2.2169 4.9817-1.3402 4.211-0.73605 0.27695-1.4387 0.68656-2.2217 0.81719zm4.4034-1.3842c0.98214-1.1286-0.54076 1.0828 0 0zm1.8111-0.20538c0.0979-1.2042 0.0979 1.2042 0 0zm-15.805-2.7993c-3.7938-4.4718 6.2075 0.24403 1.3848 1.1363-0.54876-0.26203-0.94852-0.73142-1.3848-1.1363zm14.436 0.0653c-0.81787-2.1917 0.86869 0.99107 0 0zm1.3725-0.70882c0.6369-2.9493-5.9566-4.8777-2.2056-5.844-0.12133 2.1959 1.1936-1.1548 2.3947 1.6393 3.0927 0.29266 0.98272 6.1998-0.0841 4.4896l-0.0886-0.24043zm-17.397-0.93157c0.53498-1.1643 0.67188 0.26372 0 0zm4.8519-0.93225c-2.5188-0.94939 2.1891-5.8174-0.0231-1.8165 0.57014 0.32003 2.1936 3.8029 0.0231 1.8165zm-1.5663-1.2638c0.59101-2.0488 1.2773 0.203 0 0zm-17.061-3.1309c0.53534-2.4127 1.2364-0.67263 0 0zm34.215 0.16093c-5.4239-0.64831 7.5379-1.5942 1.069 0.13247l-0.46982-0.0514-0.59913-0.0811zm-33.602-1.9144c1.0481-1.2562-1.7471 0.058 0.48875-1.627 1.622-1.0897 4.1704-1.4368 1.4968 0.5142-0.45983 0.26793-1.496 1.695-1.9856 1.1128zm3.7026-2.9228c-0.4402-0.92974 1.2629 0.68302 0 0zm30.233-0.36526c0.2871-1.4458 1.2247 1.3763 0 0zm-28.821-0.0903c0.8431-0.52827 0.66948 0.34208 0 0zm-4.5397-1.8195c0.77261-1.8768 7.5704-1.0979 5.9759-0.65342-1.1963-0.7734-7.1836 2.0512-5.9759 0.65342zm33.247-0.16092c-2.9539-2.1014 0.88965-0.41634 0.97056 0.57326l-0.33969-0.17361zm-1.2641 0.11858c-0.15544-1.0842 0.72775 0.75015 0 0zm-8.0731-5.2977c0.98618-0.15226-0.30353 0.30234 0 0zm-11.152-15.172c-0.68269-2.0461-1.3654-4.0922-2.0481-6.1383-4.9102-1.5014-9.8324-2.9755-14.683-4.6608 2.0536-1.5778 4.2593-3.2755 6.5408-4.4229 1.9568-0.12098 3.3254-0.06559 0.8796 1.1339-1.9061 1.3517-6.2023 3.1694-1.4032 3.6858 3.318 1.8083 8.9673 1.1332 10.594 4.81 1.5961 2.6303 1.9152 12.113 5.4127 5.8812 1.7655-1.987 3.5162-3.987 5.2744-5.9805 4.0339-0.06414 8.0815 0.09896 12.103-0.27023-2.2165-2.9431-4.8287-5.7379-6.7389-8.7952 3.195-1.8966 3.6377 4.2025 6.5292 5.8504 1.1983 1.8716 5.902 5.734 0.7809 4.7717-3.9541 0.04306-7.9086 0.01867-11.863 0.02515-3.0548 3.4031-6.0434 6.8676-9.1803 10.195-0.873-1.9708-1.486-4.0526-2.1985-6.0855zm3.6969-2.3901c-0.73586-2.2583-1.4804-4.5138-2.2211-6.7705-3.1732-0.95457-6.3843-1.7956-9.516-2.8793 2.2488-0.98471 4.2079-3.2688 6.7589-3.1824 6.0577-0.5025-3.1115 2.1677-1.2009 3.2352 3.6518 0.38103 6.4172 2.0547 7.0994 5.7154 1.7131-0.86875 2.1557-4.0425 4.2963-3.8353 2.7023 0.19107 5.8664 0.05353 2.355-2.6027-1.972-1.2026-0.29559-3.4933 1.6236-2.3682-1.1071 2.7271 8.1973 7.5082 2.061 6.7889-1.9549 0.1647-4.2162-0.34806-6.0248 0.13009-1.6942 1.9995-3.3418 4.0402-5.0938 5.9894l-0.13769-0.22049zm-23.027-12.656c0.64296-0.67878 0.4059 0.6119 0 0z" fill="#010203"/></g></g></svg>
