<?xml version="1.0" encoding="utf-8" ?><svg xmlns="http://www.w3.org/2000/svg" xmlns:xlink="http://www.w3.org/1999/xlink" width="2014" height="615" viewBox="0 0 2014 615"><path fill="#0E6CB6" d="M1384.85 202.299C1395.35 201.247 1411.83 201.625 1422.58 201.585L1487.15 201.507C1526.48 201.65 1603.32 199.072 1633.11 228.086C1650.58 245.103 1650.06 280.821 1649.97 303.926L1557.93 303.963C1557.9 302.78 1557.87 301.598 1557.82 300.416C1557.51 292.852 1557.36 285.3 1551.25 279.908C1541.67 271.455 1438.86 270.823 1419.6 271.735C1408.5 272.261 1390.02 274.042 1382.37 282.618C1378.38 287.06 1376.3 292.903 1376.59 298.874C1377.91 322.751 1409.21 319.039 1426.72 319.97C1458.49 321.398 1490.28 322.553 1522.08 323.434C1550.13 324.384 1578.61 324.672 1606.08 330.919C1618.13 333.658 1629.6 337.403 1638.94 345.693C1655.5 360.397 1660.01 383.542 1660.86 404.699C1661.94 431.832 1661.42 472.874 1641.71 493.976C1619.09 518.188 1575 518.114 1544.71 519.407L1517.43 519.728C1467.86 520.214 1420.67 520.987 1371.19 516.516C1290.82 509.253 1282.23 487.49 1282.31 413.107L1373.81 413.012C1375.03 432.166 1375.94 444.608 1398.25 446.918C1416.21 448.777 1434.09 448.628 1452.13 448.683C1483.25 448.778 1514.42 448.924 1545.47 446.638C1551.82 446.409 1560.5 445.282 1564.66 439.818C1570.72 431.852 1571.23 414.389 1565.04 406.389C1563.76 404.737 1560.54 401.739 1558.79 401.228C1544.41 397.021 1524.77 397.786 1510.08 397.323C1479.94 396.209 1449.79 394.91 1419.66 393.426C1393.21 392.356 1368.57 392.617 1342.47 387.746C1304.28 380.622 1289.22 358.95 1286.01 321.424C1283.64 293.842 1284.71 252.915 1302.79 230.112C1319.43 209.117 1359.91 204.391 1384.85 202.299Z"/><path fill="#0E6CB6" d="M578.64 202.116C590.415 201.225 605.692 201.607 617.766 201.568L683.592 201.532C720.602 201.743 794.603 199.987 823.432 227.112C841.823 244.416 841.025 280.213 840.863 303.932L749.455 303.94C748.752 295.963 749.053 286.15 742.833 280.202C733.211 270.999 631.875 270.964 612.543 271.665C601.087 272.08 581.574 273.669 573.607 282.41C569.561 286.852 567.448 292.722 567.734 298.726C568.869 322.432 599.507 319.03 617.07 319.977C643.902 321.2 670.745 322.189 697.595 322.944C733.434 324.119 802.852 322.169 830.53 346.215C846.997 361.52 850.945 383.262 851.865 404.197C856.223 503.402 824.728 515.678 735.827 519.385L704.325 519.788C643.417 520.433 576.436 522.678 517.04 508.676C472.151 498.095 473.46 449.347 473.189 413.108L565.185 413.006C565.197 413.714 565.214 414.421 565.235 415.128C565.904 437.467 571.307 446.637 595.088 447.574C641.988 449.422 689.316 449.333 736.187 446.682C742.127 446.346 750.613 445.688 754.92 440.832C763.308 431.826 762.836 405.419 749.247 401.044C736.296 396.873 715.007 397.743 700.922 397.313C670.875 396.22 640.836 394.93 610.806 393.442C576.741 392.065 527.406 394.333 498.441 372.982C483.959 362.306 477.403 333.899 476.6 315.992C472.764 230.431 496.131 208.623 578.64 202.116Z"/><path fill="#0E6CB6" d="M995.062 206.452C1042.94 207.242 1093.7 206.485 1141.77 206.491C1162.13 242.981 1183.14 285.372 1202.75 322.871L1303.41 515.645L1196.26 515.639C1188.37 502.605 1176.83 477.764 1169.61 463.392L1140.25 463.427L965.405 463.415L939.172 515.617L830.85 515.607C847.896 485.039 864.694 452.083 881.199 420.962L995.062 206.452ZM999.456 395.332L1078.3 395.309L1136.16 395.306L1076.98 278.505L1058.39 278.525C1039.11 317.523 1018.49 356.318 999.456 395.332Z"/><path fill="#0E6CB6" d="M202.57 401.873C231.45 398.913 257.239 419.991 260.104 448.899C262.969 477.806 241.819 503.542 212.921 506.315C184.154 509.075 158.577 488.031 155.725 459.256C152.873 430.481 173.822 404.82 202.57 401.873Z"/><path fill="#8FC83F" d="M250.885 220.798C279.689 218.34 305.045 239.677 307.565 268.492C310.086 297.308 288.819 322.727 260.027 325.313C231.144 327.908 205.642 306.547 203.113 277.64C200.585 248.733 221.99 223.263 250.885 220.798Z"/><path fill="#0E6CB6" d="M739.955 548.593L741.774 549.037C743.992 552.41 747.023 563.615 748.368 568.025L754.216 548.536C759.715 548.657 765.574 548.55 771.107 548.55C758.637 583.521 755.835 575.318 756.394 613.64L740.358 613.587C740.835 586.824 741.376 587.417 731.047 562.121L729.159 558.139C725.445 562.547 720.694 562.018 715.47 561.723C715.834 578.642 715.542 596.644 715.562 613.65L700.084 613.631L700.058 561.577C696.635 561.713 691.641 562.47 689.118 560.556C687.27 557.692 687.936 552.222 688.05 548.584C698.185 548.827 717.142 547.792 725.803 548.621L727.107 550.325C732.5 548.279 734.146 548.433 739.955 548.593Z"/><path fill="#0E6CB6" d="M1920 548.515C1935.04 549.045 1964.34 544.106 1960.98 568.175C1960.12 574.385 1958.77 575.715 1954.81 580.722C1955.22 581.487 1955.59 582.269 1955.92 583.064C1958.17 588.255 1963.58 608.584 1961.82 613.011C1958.07 614.133 1949.96 613.982 1946.2 612.968L1945.2 611.105C1944.27 600.089 1946.42 597.796 1940.97 586.793L1937.99 586.8C1933.92 593.345 1935 605.816 1935.13 613.587L1920.08 613.602C1919.29 593.534 1919.99 568.933 1920 548.515ZM1943.91 573.77C1945.03 569.943 1945.5 568.738 1944.88 564.7C1941.86 560.101 1940.46 560.184 1935.1 559.659C1934.99 563.877 1934.01 571.766 1936.35 574.809C1939.7 575.701 1940.24 574.895 1943.91 573.77Z"/><path fill="#0E6CB6" d="M1826.96 548.575L1827.67 549.018C1828.72 554.396 1828.13 604.831 1828.11 613.589L1812.1 613.535C1808.38 601.016 1804.49 588.547 1800.44 576.132C1801.24 589.336 1801.65 600.225 1801.65 613.491L1791.01 613.497L1788.94 613.328C1786.68 610.742 1787.59 555.907 1787.56 548.615L1803.7 548.582L1815.85 587.094C1814.5 573.266 1814.34 562.398 1814.31 548.589L1826.96 548.575Z"/><path fill="#0E6CB6" d="M1696.1 548.51L1709.8 548.519C1709.63 569.64 1709.61 590.761 1709.74 611.881L1709.42 612.605C1706.59 614.2 1697.63 613.563 1693.65 613.564C1689.99 601.39 1686.25 589.24 1682.43 577.114C1682.78 589.263 1682.97 601.416 1682.99 613.569L1669.09 613.595C1668.97 591.913 1669.03 570.23 1669.25 548.549C1674.28 548.723 1680.26 548.553 1685.38 548.544C1689.17 560.939 1693.01 574.413 1697.48 586.497C1695.85 575.073 1696.15 560.327 1696.1 548.51Z"/><path fill="#0E6CB6" d="M1318.34 548.582L1332.51 548.472L1332.51 613.643L1316.41 613.641C1312.36 601.487 1308.51 588.289 1304.69 575.989C1305.49 588.512 1305.86 601.06 1305.78 613.61L1292.08 613.621L1292.08 548.479C1296.86 548.712 1302.82 548.571 1307.7 548.593C1311.85 559.793 1316.23 575.268 1320.12 587.011C1318.61 573.231 1318.53 562.372 1318.34 548.582Z"/><path fill="#0E6CB6" d="M1090.99 548.531L1104.64 548.517C1104.33 569.211 1104.59 590.564 1104.59 611.31L1104.23 612.756C1101.69 614.262 1092.15 613.619 1088.61 613.561C1085.19 601.59 1081.23 589.289 1077.57 577.355C1077.8 589.43 1077.93 601.507 1077.97 613.584L1064.12 613.575L1064.16 548.531C1069.19 548.723 1075.19 548.548 1080.3 548.536C1083.77 559.734 1088.24 575.766 1092.57 586.279C1090.89 576.476 1091 558.624 1090.99 548.531Z"/><path fill="#0E6CB6" d="M1029.17 548.55L1047.18 548.635C1051.8 569.954 1056.94 592.16 1060.93 613.534C1056.76 613.711 1050.31 614.488 1046.83 612.71C1044.38 610.468 1044.4 606.618 1043.96 603.189L1043.86 601.913C1041.34 600.461 1035.36 601.057 1032.17 601.156C1031.76 605.142 1030.98 609.666 1030.38 613.677L1014.94 613.405C1018.2 595.446 1024.52 565.997 1029.17 548.55ZM1039.49 590.153C1041.25 588.273 1041.66 588.145 1041.34 584.881C1040.93 580.632 1039.27 568.254 1037.83 564.446C1036.53 571.363 1034.07 581.441 1035.02 588.142C1037.06 590.022 1036.51 589.477 1039.49 590.153Z"/><defs><linearGradient id="gradient_0" gradientUnits="userSpaceOnUse" x1="1035.0583" y1="585.77802" x2="1041.5172" y2="572.16852"><stop offset="0" stop-color="black" stop-opacity="0"/><stop offset="1" stop-color="#01070D" stop-opacity="0.043137256"/></linearGradient></defs><path fill="url(#gradient_0)" d="M1037.83 564.446C1039.27 568.254 1040.93 580.632 1041.34 584.881C1041.66 588.145 1041.25 588.273 1039.49 590.153C1036.51 589.477 1037.06 590.022 1035.02 588.142C1034.07 581.441 1036.53 571.363 1037.83 564.446Z"/><path fill="#0E6CB6" d="M919.175 548.547C924.646 548.742 931.083 548.572 936.636 548.569L950.669 613.576L935.301 613.59L933.345 601.434C931.751 601.069 924.035 601.14 921.954 601.125L920.052 613.539L904.075 613.4C906.824 604.112 916.435 552.814 919.175 548.547ZM928.335 590.477C929.271 589.777 930.651 589.067 930.8 588.165C931.416 584.427 928.751 567.828 927.546 564.476C926.242 571.345 924.467 578.39 924.119 585.358C923.91 589.531 924.917 589.174 928.335 590.477Z"/><path fill="#0E6CB6" d="M650.252 548.538C662.017 548.765 673.785 548.756 685.549 548.51L685.61 561.718L665.688 561.715L665.756 572.918L683.905 572.833L683.823 586.442L665.698 586.432L665.747 598.367L666.083 599.606C669.147 600.581 681.741 600.086 685.688 600.038L685.575 613.617C673.742 613.474 661.908 613.477 650.074 613.627C650.05 592.115 649.774 569.999 650.252 548.538Z"/><path fill="#0E6CB6" d="M1627.24 548.546C1639.09 548.754 1650.95 548.742 1662.81 548.51L1662.77 561.715L1642.5 561.721L1642.65 572.914L1661.03 572.826L1661.04 586.448C1656.1 586.45 1647.4 585.276 1643.95 587.275C1641.67 590.888 1642.51 591.615 1642.61 596.55L1642.86 599.155C1645.95 601.054 1658.45 600.178 1662.86 600.034L1662.77 613.614C1650.93 613.472 1639.09 613.481 1627.25 613.64L1627.24 548.546Z"/><path fill="#0E6CB6" d="M1878.12 548.493C1890.03 548.858 1901.68 548.653 1913.58 548.488L1913.57 561.723L1893.34 561.728L1893.47 572.914L1911.86 572.828L1911.84 586.449C1906.97 586.425 1898.25 585.288 1894.73 587.303C1892.53 590.883 1893.37 591.701 1893.51 596.549L1893.65 599.044C1896.64 601.111 1909.17 600.178 1913.59 600.033L1913.59 613.662C1901.93 613.327 1889.82 613.554 1878.12 613.615L1878.12 548.493Z"/><path fill="#0E6CB6" d="M1835.99 548.498C1847.88 548.856 1859.57 548.652 1871.45 548.497L1871.44 561.72L1851.52 561.715L1851.6 572.915L1869.96 572.833L1869.84 586.447C1865.01 586.329 1856.32 585.293 1852.85 587.516C1850.7 591.592 1851.52 592.281 1851.62 597.534L1852.15 599.634C1856.65 600.661 1866.45 600.132 1871.46 600.033L1871.46 613.651C1859.63 613.455 1847.81 613.449 1835.98 613.634L1835.99 548.498Z"/><path fill="#0E6CB6" d="M1249.96 548.503C1261.35 548.935 1273.66 548.634 1285.12 548.557L1285.12 561.71L1264.98 561.721L1265.01 572.916L1283.71 572.835L1283.59 586.449L1265.07 586.438L1264.98 597.428C1264.9 598.299 1265.38 598.881 1265.83 599.671C1270.4 600.655 1280.1 600.131 1285.15 600.025L1285.14 613.594C1273.41 613.475 1261.69 613.484 1249.96 613.621L1249.96 548.503Z"/><path fill="#0E6CB6" d="M878.939 548.563L879.359 548.777C880.674 550.719 880.14 558.857 880.103 561.714L860.097 561.707L860.13 572.923L878.885 572.839L878.75 585.964L860.024 586.109L860.12 611.116L859.487 613.043C856.778 614.058 847.954 613.56 844.561 613.495C844.79 591.925 844.606 570.168 844.563 548.583C855.89 548.841 867.582 548.629 878.939 548.563Z"/><path fill="#0E6CB6" d="M1336.17 548.483C1349.2 548.953 1362.87 548.648 1375.94 548.555L1375.97 561.695L1363.4 561.706C1363.71 574.382 1363.49 588.158 1363.52 600.914L1363.52 613.641L1348.11 613.631L1348.08 561.572C1343.89 561.704 1340.31 562.307 1336.94 560.35C1335.27 557.683 1336.01 551.883 1336.17 548.483Z"/><path fill="#0E6CB6" d="M1441.21 548.549C1454.15 548.942 1468.02 548.635 1481.04 548.571L1481.05 561.688L1468.54 561.706L1468.59 601.16L1468.63 613.595L1453.26 613.634L1453.27 561.559L1441.23 561.695L1441.21 548.549Z"/><path fill="#0E6CB6" d="M996.84 548.564C1001.39 548.78 1007.27 548.494 1011.94 548.394C1011.85 558.912 1012.96 605.206 1011.5 613.482L996.217 613.581C996.286 604.049 995.336 555.653 996.84 548.564Z"/><path fill="#0E6CB6" d="M1764.85 548.564C1769.64 548.692 1775.1 548.54 1779.95 548.524L1779.84 613.577L1764.22 613.577C1764.34 603.791 1763.31 555.839 1764.85 548.564Z"/><path fill="#0E6CB6" d="M1226.98 548.561L1242.06 548.543C1242.04 558.752 1243.04 605.708 1241.63 613.551L1226.37 613.527C1226.58 602.881 1225.47 556.341 1226.98 548.561Z"/><path fill="#0E6CB6" d="M1379.38 548.547C1384.13 548.729 1390.02 548.535 1394.86 548.512L1394.8 613.57L1379.34 613.574C1379.66 592.124 1379.39 570.047 1379.38 548.547Z"/><path fill="#0E6CB6" d="M627.109 548.498C631.693 548.734 637.723 548.525 642.422 548.497L642.387 613.639L627.123 613.633L627.109 548.498Z"/><path fill="#0E6CB6" d="M1669.57 206.461L2012.46 206.402C2012.92 230.034 2012.48 255.698 2012.47 279.466L1762.93 279.434L1762.97 323.5L1999.72 323.419C1999.52 346.198 1999.52 368.978 1999.71 391.757L1762.93 391.766L1762.97 440.912L2014 440.886L2014 515.597L1669.56 515.619C1670.16 479.835 1669.65 442.648 1669.65 406.775L1669.57 206.461Z"/><path fill="#0E6CB6" d="M39.5507 309.804C47.9987 291.194 57.035 275.757 70.3388 260.045C51.6773 340.186 75.7626 407.667 140.981 457.988C143.329 477.834 150.158 493.805 166.271 506.613C180.198 517.682 197.951 522.759 215.621 520.726C235.604 518.325 250.455 508.299 262.571 492.746L264.473 490.313C344.64 478.273 401.597 430.926 423.001 351.816C426.436 376.188 427.109 386.399 425.622 411.011C430.478 412.466 444.694 415.748 446.64 420.478C452.408 434.499 445.049 464.733 432.261 473.48C428.283 476.2 414.37 472.076 409.41 470.853C403.762 484.256 396.572 496.956 387.987 508.695C391.749 512.558 402.524 522.354 401.801 527.875C399.839 542.878 378.06 565.071 362.854 566.439C358.271 566.852 347.834 556.126 344.2 552.724C330.459 562.417 322.167 567.084 307.012 574.463C308.108 579.244 312.37 593.7 309.608 597.615C300.608 610.373 269.822 618.723 255.782 611.852C252.153 610.075 248.078 594.789 246.72 590.39C235.994 592.329 215.381 591.89 203.918 591.023C200.701 602.282 200.417 612.285 187.661 615L177.199 615C167.899 612.937 148.17 608.974 143.086 600.635C138.36 592.884 141.763 583.275 143.673 575.003C130.545 569.206 118.064 562.039 106.438 553.622C103.002 556.996 92.9897 567.914 88.5529 567.765C72.5236 567.227 50.0806 544.988 48.3189 529.305C47.7327 524.087 58.5491 513.791 62.1423 509.882C52.7884 496.295 47.6909 487.713 40.6061 472.835C32.3399 474.942 21.5426 478.838 14.1418 473.286C5.04026 466.459 1.89751 447.243 0 436.765L0 429.513C3.21576 416.471 12.3012 416.595 23.9592 412.918C22.8617 397.067 23.0004 385.669 23.6858 369.941C13.6611 367.16 4.81971 366.671 0 356.723L0 341.657C3.34309 326.959 5.5849 315.247 17.9984 305.573L39.5507 309.804Z"/><path fill="#8FC83F" d="M259.7 0L266.208 0C284.044 5.60879 377.655 27.375 385.775 34.1532C392.797 58.5484 365.219 44.6269 362.931 52.6844C350.174 97.6101 338.859 143.054 326.564 188.147C331.858 191.565 336.969 195.259 341.875 199.215C373.982 225.268 394.523 262.942 399.038 304.058C403.862 348.645 390.826 387.953 363.006 422.567C375.603 366.664 363.091 320.972 322.328 280.338C322.746 271.242 322.052 262.38 319.404 253.631C314.244 236.533 302.466 222.208 286.693 213.845C271.018 205.46 252.638 203.713 235.665 208.994C215.27 215.34 203.302 228.144 193.725 246.408C140.026 260.792 102.608 296.825 88.2905 350.907C87.2474 346.243 86.69 342.044 86.1957 337.318C81.9503 295.653 94.4611 254.012 120.963 221.597C151 184.642 188.709 168.8 234.914 164.065C245.593 118.671 260.191 73.4266 270.304 27.9159C272.246 19.1763 242.486 21.436 259.7 0ZM250.887 163.775C254.276 164.773 259.073 166.329 262.411 166.842C273.397 124.581 285.628 81.3438 296.062 39.1309L284.799 36.125C273.269 77.9368 261.545 121.739 250.887 163.775Z"/><path fill="#0E6CB6" d="M544.876 615C539.302 612.881 532.429 609.598 530.938 603.701C527.201 588.924 523.102 555.127 541.057 548.659C561.711 541.22 572.05 555.721 572.06 574.45C571.996 590.121 574.423 610.646 554.395 615L544.876 615ZM553.05 602.603C556.694 596.414 559.316 566.108 551.924 560.247C551.018 559.529 547.684 559.607 546.279 559.616C543.985 566.119 539.756 598.295 549.339 602.099C550.166 602.427 552.082 602.551 553.05 602.603Z"/><path fill="#0E6CB6" d="M811.411 615C794.077 608.818 794.788 597.202 794.11 580.735C793.798 573.154 794.547 568.551 796.501 560.551C800.863 542.681 829.022 542.772 835.429 557.452C839.508 566.799 838.923 591.791 836.22 602.197C834.544 609.131 827.264 613.52 820.885 615L811.411 615ZM819.425 602.486C823.973 594.822 823.258 574.001 821.506 565.069C820.486 559.873 817.315 559.536 812.853 559.548C809.591 567.746 807.622 594.617 813.863 601.473C816.364 602.316 816.79 602.407 819.425 602.486Z"/><path fill="#0E6CB6" d="M1559.77 574.646C1536.3 529.499 1617.94 547.947 1577.69 577.433C1579.25 579.933 1581.02 583.971 1583.22 584.656C1585.25 581.941 1586.27 580.132 1589.46 578.871L1597.68 578.969C1596.05 586.57 1594.81 592.084 1591.14 599.162C1594.05 603.767 1597.41 608.811 1600.16 613.45C1591.03 613.788 1588.46 612.893 1579.54 611.936C1578.72 611.849 1573 614.597 1571.46 615L1563.35 615C1542.7 605.893 1545.33 588.334 1559.77 574.646ZM1565.99 585.494C1560.37 594.987 1560.82 602.457 1573.51 602.552C1574.18 601.094 1574.93 600.259 1574.55 599.049C1573.67 596.268 1567.92 587.203 1565.99 585.494ZM1572.17 567.304C1573.9 564.719 1575.46 563.011 1575.08 559.913C1573.12 557.394 1572.94 557.37 1569.24 556.382C1567.35 560.366 1567.41 563.569 1570.27 567.036L1572.17 567.304Z"/><path fill="#0E6CB6" d="M1733.98 615C1727.65 613.136 1723.63 611.926 1720.31 605.558C1714.25 593.914 1714.67 574.12 1717.65 561.728C1720.67 549.197 1734.18 544.34 1745.45 548.259C1755.74 551.494 1756.7 561.481 1756.75 570.474L1742.3 570.489C1741.94 567.033 1742 562.829 1739.72 560.419C1736.76 558.954 1737.81 558.916 1735.06 559.767C1730.44 565.563 1730.4 597.879 1734.59 602.522C1739.96 603.771 1744.05 595.503 1743.05 591.145C1739.44 587.835 1739.22 590.99 1736.58 587.075C1736.45 583.732 1736.5 580.929 1736.6 577.607L1757.43 577.583L1757.43 613.601C1752.38 613.596 1748.49 613.121 1743.69 612.27C1742.85 612.122 1736.28 614.635 1734.54 615L1733.98 615Z"/><path fill="#0E6CB6" d="M1193.96 615C1179.17 610.515 1177.63 602.643 1176.4 588.447C1174.57 567.394 1178.06 540.01 1206.48 548.119C1212.71 549.886 1221.44 562.122 1220.18 569.22L1218.52 571.371C1213.58 571.73 1209.7 571.74 1204.74 571.67C1204.32 567.672 1204.32 564.821 1202.27 561.341C1199.13 559.415 1200.5 559.774 1196.6 560.159C1188.9 565.269 1191.1 601.069 1199.23 604.082C1203.45 600.753 1203.69 597.564 1204.33 592.077C1204.5 590.759 1204.59 589.433 1204.61 588.105L1219.71 587.973C1219.16 602.216 1218.29 611.146 1202.54 615L1193.96 615Z"/><path fill="#0E6CB6" d="M594.149 615C575.357 609.172 578.086 597.634 576.575 579.878C574.48 555.248 590.118 536.158 614.497 553.024C620.966 557.499 623.855 578.034 606.179 571.537C601.961 567.326 607.576 563.507 599.327 559.186C589.054 560.553 593.406 588.923 593.404 596.624C593.404 599.079 595.152 600.63 596.873 602.008C599.796 602.416 600.16 602.262 602.852 601.006C607.651 592.232 596.865 587.405 619.951 587.979C619.406 601.815 619.005 610.507 603.701 615L594.149 615Z"/><path fill="#0E6CB6" d="M1404.11 576.937C1388.99 533.842 1446.17 544.39 1438.83 565.189C1429.16 574.568 1425.54 561.43 1418.4 558.252L1416.37 559.586C1416.16 561.685 1415.37 564.594 1416.95 566.136C1426.69 575.682 1440.92 582.093 1440.75 597.878C1440.65 605.993 1432.2 612.903 1425.01 615L1415.14 615C1407.25 611.983 1397.84 603.179 1399.02 594.299C1402.78 589.715 1408.98 591.161 1414.83 591.214C1414.99 594.836 1414.68 598.104 1417.04 600.774C1420.17 602.413 1418.87 602.26 1422.27 601.541C1424.82 598.449 1424.21 599.837 1424.85 595.947C1423.48 589.072 1410.21 583.303 1404.11 576.937Z"/><path fill="#0E6CB6" d="M951.457 591.263C956.667 591.129 961.563 589.993 964.947 592.815C966.02 596.055 966.755 599.585 969.382 601.642C972.705 602.433 971.419 602.529 974.605 601.024C983.392 586.028 940.701 582.109 954.454 556.462C965.033 536.735 992.853 550.542 991.043 565.309C986.718 570.913 977.005 568.113 974.686 562.083C973.718 559.566 973.524 559.233 971.142 558.858C967.829 560.769 968.447 559.825 966.968 562.823C968.513 571.978 993.534 579.749 991.103 596.75C989.567 607.492 986.52 611.863 975.676 615L966.922 615C952.879 610.405 952.086 604.817 951.457 591.263Z"/><path fill="#0E6CB6" d="M1481.86 591.266C1485.45 591.204 1493.65 590.665 1496.51 591.955C1497.09 596.593 1496.83 598.801 1499.69 601.956C1503.16 602.753 1501.89 602.885 1505.12 601.788C1510.52 592.694 1500.37 587.512 1493.65 583.221C1470.74 568.612 1488.41 538.308 1512.07 548.993C1517.81 551.581 1523.48 560.409 1520.08 566.624C1508.65 573.809 1507.06 561.291 1503.64 559.092C1499.94 559.448 1500.72 558.885 1498.08 560.787C1497.35 569.909 1514.99 577.263 1521.05 586.499C1522.58 600.665 1522.1 610.04 1506.62 615L1497.89 615C1483.56 610.489 1483.41 605.003 1481.86 591.266Z"/><path fill="#0E6CB6" d="M1965.52 591.262C1969.55 591.061 1974.99 590.27 1978.24 592.274C1983.31 597.975 1977.41 601.405 1986.5 602.311C1989.28 600.952 1988.41 601.708 1989.89 598.621C1989.62 585.546 1964.86 581.483 1965.55 565.63C1966.32 548.093 1987.35 540.335 1999.51 552.675C2002.5 555.708 2006.01 563.56 2004.29 567.558C2001.24 567.975 1993.34 568.651 1990.87 567.325C1989.89 564.028 1989.29 560.899 1986.96 558.388L1984.76 557.969C1982.37 559.651 1982.15 560.085 1981.03 562.827C1982.94 575.227 2003.27 576.137 2004.65 590.422C2005.87 603.01 2002.39 611.787 1989.46 615L1980.81 615C1967.1 610.508 1965.69 604.728 1965.52 591.262Z"/><path fill="#0E6CB6" d="M484.792 591.278C487.997 591.235 496.512 590.777 498.993 591.856C499.676 595.76 499.945 599.637 502.4 602.681C506.096 603.652 507.441 602.289 509.284 598.892C509.686 587.666 485.015 580.965 485.34 566.034C485.744 547.443 507.183 540.561 519.735 553.056C522.954 556.259 523.701 563.336 524.259 567.902C519.138 568.091 514.652 569.094 510.644 566.761C508.969 562.796 509.204 561.113 506.244 558.972C502.714 559.163 503.979 558.735 501.125 560.961C500.62 562.602 499.763 564.734 501.083 566.292C511.734 578.863 530.241 580.695 523.13 602.12C520.283 610.698 517.674 611.724 509.558 615L499.566 615C486.153 609.735 485.273 605.272 484.792 591.278Z"/><path fill="#0E6CB6" d="M1132.89 591.267C1137.3 591.138 1142.87 590.487 1146.6 592.527C1150.29 598.193 1144.17 599.356 1152.69 602.407C1156.07 601.651 1154.94 602.337 1157.17 599.646C1160.02 588.108 1141.23 584.468 1136.81 576.003C1122.14 547.922 1165.62 533.857 1171.87 562.361C1172.27 564.179 1172.43 565.813 1171.75 567.645C1158.76 572.586 1160.05 561.722 1152.12 558.841C1149.31 560.629 1150.1 559.674 1148.75 562.607C1149.81 571.919 1172.94 579.288 1173.02 593.323C1173.08 604.683 1168.29 612.039 1157.39 615L1147.59 615C1134.14 609.346 1133.94 605.126 1132.89 591.267Z"/></svg>