<?xml version="1.0" encoding="UTF-8"?>
<svg version="1.1" xmlns="http://www.w3.org/2000/svg" width="1024" height="313">
<path d="M0 0 C1.86021983 -0.00135209 3.72043932 -0.00329712 5.58065796 -0.00579834 C9.46184688 -0.00872843 13.34294306 -0.00452361 17.22412109 0.00488281 C22.1385425 0.01622784 27.05274414 0.00973569 31.96715736 -0.00226212 C35.80591406 -0.00957957 39.64462094 -0.00714733 43.48337936 -0.00200653 C45.29222008 -0.00069464 47.10106568 -0.00222874 48.90990067 -0.00696564 C97.5759488 -0.10641976 97.5759488 -0.10641976 113.3359375 14.953125 C121.18168712 26.83383157 120.5234375 39.16571697 120.5234375 53.265625 C104.3534375 53.265625 88.1834375 53.265625 71.5234375 53.265625 C70.8634375 49.965625 70.2034375 46.665625 69.5234375 43.265625 C63.37162508 37.11381258 47.988942 38.83900928 39.7734375 38.640625 C38.42040569 38.60392406 37.0673784 38.56705613 35.71435547 38.5300293 C31.65097308 38.42402094 27.58748946 38.34195694 23.5234375 38.265625 C22.29592773 38.24226074 21.06841797 38.21889648 19.80371094 38.19482422 C16.41854149 38.13923008 13.03395809 38.10326754 9.6484375 38.078125 C8.65231445 38.06507324 7.65619141 38.05202148 6.62988281 38.03857422 C-2.02331144 38.02819157 -9.56841777 38.73910921 -16.4765625 44.265625 C-18.04591844 47.40433688 -17.82857353 49.80418322 -17.4765625 53.265625 C-15.26547789 56.62335818 -13.87977828 57.95228458 -9.92584229 58.83520508 C-6.63015881 59.18748403 -3.35847129 59.3762335 -0.046875 59.515625 C1.1890036 59.58515381 2.4248822 59.65468262 3.69821167 59.72631836 C7.63919073 59.93690905 11.58000806 60.10789268 15.5234375 60.265625 C17.40222595 60.34224365 17.40222595 60.34224365 19.31896973 60.42041016 C29.3758395 60.81334133 39.43538034 61.09689477 49.49609375 61.37011719 C103.96378878 62.8800304 103.96378878 62.8800304 116.5234375 74.265625 C125.57210836 83.97695105 125.750261 96.41141202 125.81860352 108.9934082 C125.83003389 110.45053894 125.85034115 111.90763084 125.88012695 113.36450195 C126.15630287 126.92180792 125.29828433 140.67594706 115.734375 151.2421875 C100.41092865 165.00068614 78.56308643 163.42614394 59.28125 163.43359375 C57.30703712 163.43681566 55.33282447 163.4401804 53.35861206 163.44367981 C49.22832691 163.44964532 45.09806259 163.45152255 40.96777344 163.45092773 C35.73613991 163.45082668 30.50464383 163.46443203 25.27304268 163.48169994 C21.19405534 163.49295369 17.11509973 163.49484284 13.03609848 163.49431801 C11.11085414 163.49547992 9.18560847 163.49979784 7.26037979 163.50765038 C-45.59952076 163.70295303 -45.59952076 163.70295303 -60.4765625 150.265625 C-58.8265625 153.895625 -57.1765625 157.525625 -55.4765625 161.265625 C-74.2865625 161.265625 -93.0965625 161.265625 -112.4765625 161.265625 C-122.4765625 142.265625 -122.4765625 142.265625 -125.4765625 136.265625 C-159.4665625 135.935625 -193.4565625 135.605625 -228.4765625 135.265625 C-229.4665625 138.235625 -229.4665625 138.235625 -230.4765625 141.265625 C-233.7765625 147.865625 -237.0765625 154.465625 -240.4765625 161.265625 C-259.2865625 161.265625 -278.0965625 161.265625 -297.4765625 161.265625 C-296.53930891 156.57935705 -295.3559653 153.79978042 -293.1171875 149.65625 C-292.77658798 149.02095367 -292.43598846 148.38565735 -292.08506775 147.73110962 C-290.97129504 145.65614227 -289.84886421 143.58598952 -288.7265625 141.515625 C-287.55622843 139.3396375 -286.38829903 137.1623717 -285.22062683 134.98495483 C-284.43405667 133.51829536 -283.64679196 132.05200817 -282.85884094 130.58609009 C-279.39568105 124.13724141 -276.01957619 117.646181 -272.6640625 111.140625 C-268.20011804 102.50780452 -263.6088726 93.95514788 -258.92895508 85.43774414 C-253.76716635 76.02116305 -248.82309592 66.49421545 -243.87744141 56.96289062 C-234.3356644 38.59106205 -224.53032015 20.36238877 -214.4765625 2.265625 C-189.3965625 2.265625 -164.3165625 2.265625 -138.4765625 2.265625 C-133.48309577 11.00419178 -128.6105629 19.67958287 -124.03536987 28.62701416 C-122.4114053 31.80276474 -120.7769753 34.9731337 -119.14453125 38.14453125 C-118.82434525 38.76732971 -118.50415924 39.39012817 -118.17427063 40.03179932 C-115.61813233 45.00111396 -113.02714447 49.95107489 -110.4140625 54.890625 C-106.39483723 62.49499922 -102.43078601 70.12726368 -98.4765625 77.765625 C-94.09925119 86.22062417 -89.70179804 94.66389516 -85.25634766 103.08325195 C-79.61171004 113.78381549 -74.04995415 124.52783764 -68.4765625 135.265625 C-68.1465625 134.935625 -67.8165625 134.605625 -67.4765625 134.265625 C-67.57256525 132.92778024 -67.73223619 131.59452843 -67.9140625 130.265625 C-68.62988858 122.63014682 -68.4765625 114.93458412 -68.4765625 107.265625 C-52.6365625 107.265625 -36.7965625 107.265625 -20.4765625 107.265625 C-19.4865625 111.225625 -18.4965625 115.185625 -17.4765625 119.265625 C-12.1103572 124.6318303 -9.7560409 124.38887565 -2.37231445 124.41088867 C-1.31047691 124.41592659 -1.31047691 124.41592659 -0.22718811 124.42106628 C2.11027795 124.43055455 4.44767214 124.43251865 6.78515625 124.43359375 C8.41697722 124.43680896 10.04879791 124.44017323 11.68061829 124.44367981 C15.10275947 124.44966659 18.52487543 124.45152029 21.94702148 124.45092773 C26.31351445 124.4508264 30.67984375 124.46445058 35.04629803 124.48169994 C38.4188154 124.49287003 41.79129392 124.49484537 45.1638279 124.49431801 C46.77243422 124.49549166 48.38104176 124.49987861 49.98962975 124.50765038 C61.89992879 124.61658077 61.89992879 124.61658077 73.5234375 122.265625 C76.24454093 119.4620639 76.70581598 117.04671402 76.8984375 113.265625 C76.69749686 109.46210579 76.30946258 107.05165008 73.5234375 104.265625 C64.8875316 101.27650067 55.08627696 101.74254183 46.046875 101.44921875 C44.35069019 101.38798261 42.65453357 101.32596103 40.95840454 101.26319885 C36.50968825 101.10039601 32.06070151 100.94694047 27.61157227 100.79589844 C20.51480635 100.5532303 13.41857178 100.29538515 6.3222847 100.03917122 C3.87227555 99.95190444 1.42216965 99.86809843 -1.02798462 99.78501892 C-30.60295683 98.76257049 -30.60295683 98.76257049 -39.4765625 96.515625 C-40.18659424 96.3400708 -40.89662598 96.1645166 -41.62817383 95.98364258 C-50.14236949 93.74099853 -56.72653603 89.82056324 -61.4765625 82.265625 C-69.19480825 65.10300825 -69.22056258 42.25703227 -63.73828125 24.38671875 C-60.77890068 17.06614577 -56.81875542 10.7601679 -49.4765625 7.265625 C-46.96107739 6.30587929 -44.47092372 5.40985296 -41.9140625 4.578125 C-41.29611816 4.37541992 -40.67817383 4.17271484 -40.04150391 3.96386719 C-26.92902872 0.0179377 -13.55016673 -0.03520801 0 0 Z M-180.4765625 41.265625 C-187.92769456 54.52326003 -194.93168263 67.97550665 -201.7265625 81.578125 C-202.11190155 82.348078 -202.4972406 83.11803101 -202.89425659 83.91131592 C-203.9922113 86.10745954 -205.08677439 88.30524998 -206.1796875 90.50390625 C-206.5134993 91.17272324 -206.8473111 91.84154022 -207.1912384 92.53062439 C-208.78794305 95.27276093 -208.78794305 95.27276093 -209.4765625 98.265625 C-187.6965625 98.265625 -165.9165625 98.265625 -143.4765625 98.265625 C-150.72306934 82.94707633 -150.72306934 82.94707633 -158.49609375 67.97265625 C-161.0123591 63.31034913 -163.35497747 58.5620977 -165.68774414 53.8059082 C-167.79832648 49.52764082 -170.07522386 45.38827718 -172.4765625 41.265625 C-175.1165625 41.265625 -177.7565625 41.265625 -180.4765625 41.265625 Z M-66.4765625 138.265625 C-65.4765625 140.265625 -65.4765625 140.265625 -65.4765625 140.265625 Z " fill="#0F6CB6" transform="translate(719.4765625,101.734375)"/>
<path d="M0 0 C1.85307312 0.00052115 3.70614678 -0.00000636 5.55921936 -0.00151062 C9.41057784 -0.00142182 13.26172302 0.0088158 17.11303711 0.02709961 C21.98809452 0.04976673 26.86284135 0.05032338 31.73793697 0.04358196 C35.55524841 0.04020016 39.37249224 0.04695039 43.18979073 0.0567112 C44.9846721 0.06049261 46.77956109 0.0617417 48.57444572 0.06012535 C95.27598792 0.05308957 95.27598792 0.05308957 110.0703125 12.0078125 C121.27232437 23.30495823 119.03515625 38.24567371 119.03515625 53.36328125 C103.19515625 53.36328125 87.35515625 53.36328125 71.03515625 53.36328125 C70.37515625 50.06328125 69.71515625 46.76328125 69.03515625 43.36328125 C62.88334383 37.21146883 47.50066075 38.93666553 39.28515625 38.73828125 C37.93212444 38.70158031 36.57909715 38.66471238 35.22607422 38.62768555 C31.16269183 38.52167719 27.09920821 38.43961319 23.03515625 38.36328125 C21.80764648 38.33991699 20.58013672 38.31655273 19.31542969 38.29248047 C15.93026024 38.23688633 12.54567684 38.20092379 9.16015625 38.17578125 C8.1640332 38.16272949 7.16791016 38.14967773 6.14160156 38.13623047 C-2.51159269 38.12584782 -10.05669902 38.83676546 -16.96484375 44.36328125 C-18.53419969 47.50199313 -18.31685478 49.90183947 -17.96484375 53.36328125 C-15.75375914 56.72101443 -14.36805953 58.04994083 -10.41412354 58.93286133 C-7.11844006 59.28514028 -3.84675254 59.47388975 -0.53515625 59.61328125 C0.70072235 59.68281006 1.93660095 59.75233887 3.20993042 59.82397461 C7.15090948 60.0345653 11.09172681 60.20554893 15.03515625 60.36328125 C16.9139447 60.4398999 16.9139447 60.4398999 18.83068848 60.51806641 C28.88755825 60.91099758 38.94709909 61.19455102 49.0078125 61.46777344 C104.00564736 62.9923828 104.00564736 62.9923828 115.03515625 74.36328125 C126.76378824 87.08723293 125.57762305 104.16835209 125.17138672 120.42285156 C124.63763392 131.94349444 122.57336696 144.59320807 113.72265625 152.73828125 C101.17090625 162.27976144 85.17397698 163.50255301 69.88305664 163.52441406 C69.02763779 163.52937897 68.17221893 163.53434387 67.2908783 163.53945923 C64.48818112 163.55393964 61.6855408 163.56086439 58.8828125 163.56640625 C57.91068754 163.56923363 56.93856258 163.572061 55.93697929 163.57497406 C50.7770753 163.58992055 45.61719886 163.59917471 40.45727539 163.60351562 C36.24787608 163.60787477 32.03868467 163.62167273 27.8293457 163.64453125 C-45.39244227 164.03439848 -45.39244227 164.03439848 -60.09375 151.41015625 C-71.10160632 139.36815894 -68.96484375 122.58748565 -68.96484375 107.36328125 C-53.12484375 107.36328125 -37.28484375 107.36328125 -20.96484375 107.36328125 C-19.97484375 111.65328125 -18.98484375 115.94328125 -17.96484375 120.36328125 C-12.5371407 124.43405853 -9.56916234 124.48854474 -2.8605957 124.50854492 C-2.15270401 124.51190353 -1.44481232 124.51526215 -0.71546936 124.51872253 C1.6219967 124.5282108 3.95939089 124.5301749 6.296875 124.53125 C7.92869597 124.53446521 9.56051666 124.53782948 11.19233704 124.54133606 C14.61447822 124.54732284 18.03659418 124.54917654 21.45874023 124.54858398 C25.8252332 124.54848265 30.1915625 124.56210683 34.55801678 124.57935619 C37.93053415 124.59052628 41.30301267 124.59250162 44.67554665 124.59197426 C46.28415297 124.59314791 47.89276051 124.59753486 49.5013485 124.60530663 C61.41835688 124.73809124 61.41835688 124.73809124 73.03515625 122.36328125 C75.94496389 118.85439557 76.22525379 116.07282424 75.91015625 111.67578125 C75.50777826 108.14582887 74.74652539 106.65089621 72.03515625 104.36328125 C65.70740419 101.96342635 58.68218392 101.98469693 52.00390625 101.80078125 C50.95058609 101.76473282 49.89726593 101.72868439 48.81202698 101.69154358 C46.55604521 101.61499107 44.29993821 101.54205721 42.04373169 101.47244263 C37.29565779 101.32471706 32.54842552 101.15554031 27.80104065 100.98731995 C24.19147262 100.85951566 20.58182389 100.73418076 16.97216797 100.60888672 C7.87431284 100.2895008 -1.22204469 99.94636444 -10.31640625 99.53881836 C-12.01429261 99.46459995 -13.71237882 99.39479587 -15.41064453 99.32983398 C-30.26029065 98.75915222 -45.9918566 97.97081383 -57.83984375 87.92578125 C-68.50315068 75.0670876 -68.87668558 58.42019484 -67.96484375 42.36328125 C-66.89985573 31.02008667 -64.86080472 19.84068798 -56.46484375 11.55078125 C-41.18814035 -0.49485686 -18.47552951 -0.10523356 0 0 Z " fill="#0F6CB6" transform="translate(308.96484375,101.63671875)"/>
<path d="M0 0 C58.08 0 116.16 0 176 0 C176 12.87 176 25.74 176 39 C134.09 39 92.18 39 49 39 C49 45.93 49 52.86 49 60 C88.93 60 128.86 60 170 60 C170 71.88 170 83.76 170 96 C130.07 96 90.14 96 49 96 C49 103.92 49 111.84 49 120 C90.91 120 132.82 120 176 120 C176 132.87 176 145.74 176 159 C117.92 159 59.84 159 0 159 C0 106.53 0 54.06 0 0 Z " fill="#0F6CB6" transform="translate(848,104)"/>
<path d="M0 0 C0.66 0 1.32 0 2 0 C1.1255814 10.12093023 1.1255814 10.12093023 0.4375 14.9375 C-2.51273838 38.39665358 4.73274415 62.03380055 18.875 80.6875 C25.9673823 89.82891448 25.9673823 89.82891448 35.08984375 96.73828125 C38.75897043 99.58985756 39.34744282 102.29513373 40.3125 106.625 C42.7065348 115.50233441 46.71727541 121.71263158 54.69921875 126.6796875 C63.12535922 131.03421849 71.39327884 132.61477123 80.796875 130.31640625 C87.63571638 127.75715039 93.45850336 123.87920829 98.29296875 118.40234375 C101.58398095 115.48174851 103.68084757 115.12225077 108 114.5 C129.8123372 110.85122538 151.19950764 97.69516072 164.33984375 79.81640625 C169.69875942 71.98312158 173.57963021 63.85788073 177 55 C177.3403125 54.1234375 177.680625 53.246875 178.03125 52.34375 C178.70599405 50.56942306 179.35701127 48.78607982 180 47 C180.66 47 181.32 47 182 47 C183.53653322 56.79539929 184.27538262 66.07092668 184 76 C184.62648437 76.26554687 185.25296875 76.53109375 185.8984375 76.8046875 C186.71570313 77.15789062 187.53296875 77.51109375 188.375 77.875 C189.18710938 78.22304687 189.99921875 78.57109375 190.8359375 78.9296875 C193 80 193 80 195 82 C196.34845316 91.76844559 193.58547956 99.50585593 189.5 108.1875 C185.20921126 111.29832184 180.11588074 110.36197269 175 110 C173.87159372 112.06069917 172.74721229 114.12343096 171.625 116.1875 C170.99851563 117.33605469 170.37203125 118.48460937 169.7265625 119.66796875 C168.30306245 122.41513062 167.07941553 125.10520381 166 128 C167.2375 129.0209375 167.2375 129.0209375 168.5 130.0625 C171 133 171 133 171.6875 136.25 C170.21582672 144.2773088 164.57472838 150.42170741 158 155 C154.17613371 157.17010024 151.42720667 157.54369205 147 157 C144.0625 154.5 144.0625 154.5 142 152 C137.85967154 153.54385129 134.06446947 155.51028938 130.1875 157.625 C129.59001953 157.94984375 128.99253906 158.2746875 128.37695312 158.609375 C126.91662865 159.40379151 125.45812509 160.20155376 124 161 C124.11859375 161.73605469 124.2371875 162.47210938 124.359375 163.23046875 C125.39966985 171.1055008 125.39966985 171.1055008 123.6875 174.9375 C116.09940589 180.76092106 108.51790815 181.44304975 99.22265625 181.43359375 C96 181 96 181 94.18359375 179.97265625 C93 178 93 178 91 170 C84.07 170 77.14 170 70 170 C69.34 172.97 68.68 175.94 68 179 C64.69766755 182.30233245 60.12459936 181.43280648 55.67919922 181.44262695 C48.30263851 181.27671276 43.07512561 179.10571247 37.2265625 174.6484375 C35.47269491 172.29132883 35.8621287 170.80015883 36.25 167.9375 C36.35828125 167.05964844 36.4665625 166.18179688 36.578125 165.27734375 C37 163 37 163 38 161 C37.21625 160.79375 36.4325 160.5875 35.625 160.375 C31.46171409 158.79582259 28.0634329 156.60293746 24.3671875 154.14453125 C22.11054048 152.80377892 22.11054048 152.80377892 19.8359375 153.19140625 C17.77102471 153.97833043 17.77102471 153.97833043 15.75 156.125 C12.62556202 158.25529862 10.82165523 158.43024786 7.1171875 157.73828125 C-0.06753078 155.23290901 -5.16817665 149.18031066 -9.3125 143.0625 C-10.39318309 139.82045072 -10.40984505 137.39585899 -10 134 C-8.53829964 131.67248409 -6.93803453 129.98648539 -5 128 C-6.78126333 124.3655031 -8.70197866 120.81115063 -10.625 117.25 C-11.11226562 116.34701172 -11.11226562 116.34701172 -11.609375 115.42578125 C-12.40570585 113.95022703 -13.20277839 112.47507314 -14 111 C-15.10408203 111.17789063 -15.10408203 111.17789063 -16.23046875 111.359375 C-24.1055008 112.39966985 -24.1055008 112.39966985 -27.9375 110.6875 C-32.95869255 104.14473395 -34.38261707 97.66727606 -34.5625 89.5625 C-34.58932861 88.86415039 -34.61615723 88.16580078 -34.64379883 87.44628906 C-34.62890625 85.44140625 -34.62890625 85.44140625 -34 82 C-30.4164521 78.83118459 -27.92595927 78.82099321 -23 78 C-23 71.07 -23 64.14 -23 57 C-27.95 55.515 -27.95 55.515 -33 54 C-35.36249969 51.63750031 -34.36872964 45.38790771 -34.39379883 42.08789062 C-34.29203942 35.55973303 -33.15076984 30.23815461 -29 25 C-25.5858765 22.72391767 -24.84289339 22.83511023 -20.9375 23.3125 C-20.05964844 23.41175781 -19.18179687 23.51101562 -18.27734375 23.61328125 C-16 24 -16 24 -14 25 C-13.67 23.7625 -13.34 22.525 -13 21.25 C-10.86821178 14.78289245 -6.93974462 9.48863615 -3 4 C-2.46375 3.22269531 -1.9275 2.44539062 -1.375 1.64453125 C-0.92125 1.10183594 -0.4675 0.55914062 0 0 Z " fill="#0F6CB6" transform="translate(34,132)"/>
<path d="M0 0 C7.64559202 -0.33282586 14.21786874 0.44435133 21.56640625 2.51953125 C22.52594711 2.77876877 23.48548798 3.03800629 24.47410583 3.30509949 C27.50726595 4.1280004 30.53473563 4.96998955 33.5625 5.8125 C35.59536527 6.36647565 37.6285665 6.91922002 39.66210938 7.47070312 C48.88031301 9.98174039 48.88031301 9.98174039 53.44265747 11.27774048 C55.22506036 11.78113705 57.01203113 12.26851785 58.80221558 12.74349976 C59.70142731 12.99145294 60.60063904 13.23940613 61.52709961 13.49487305 C62.3378746 13.71217575 63.1486496 13.92947845 63.98399353 14.15336609 C66 15 66 15 68 18 C67.81159997 21.01440049 67.43213911 23.23740157 65.9375 25.875 C63.65968452 27.19760254 62.48117678 27.11748357 59.87890625 27.0703125 C57.95884766 27.03550781 57.95884766 27.03550781 56 27 C54.23986914 33.63037715 52.48006151 40.26084004 50.72045898 46.89135742 C50.12417595 49.13812109 49.52782397 51.38486647 48.93139648 53.6315918 C45.27191819 67.4169604 41.62245545 81.20485313 38 95 C38.772229 95.6182666 39.54445801 96.2365332 40.34008789 96.87353516 C56.53056022 109.89154026 70.81686004 127.42570213 73.78466797 148.81982422 C75.98892916 171.13734404 73.52767114 192.85399291 59.40917969 211.05029297 C57.97978673 212.75063056 56.56789329 214.42627697 55 216 C54.67 216 54.34 216 54 216 C54.0721875 215.41476563 54.144375 214.82953125 54.21875 214.2265625 C56.49677548 193.1548268 55.11340993 173.10525727 43 155 C41.26132215 153.0757615 39.47077032 151.19676463 37.625 149.375 C32.62750282 144.309148 32.0212849 140.44798693 31.46484375 133.50390625 C30.50558401 126.2731837 27.02719618 119.444802 21.625 114.5 C12.97975785 108.0016916 4.71991719 106.11641895 -6 107 C-14.71966822 108.75103242 -21.2087418 113.32276573 -27 120 C-27.46664062 121.03511719 -27.93328125 122.07023437 -28.4140625 123.13671875 C-30.44523245 126.80383099 -31.93199057 127.19868163 -35.875 128.4375 C-53.23881624 134.54663401 -68.55596456 145.10828366 -76.99707031 161.99462891 C-79.6070129 167.54611548 -82.05921925 173.17765776 -84 179 C-84.66 179 -85.32 179 -86 179 C-90.74844428 159.45506418 -86.37864884 139.22421457 -76.75 121.75 C-65.17313949 102.906279 -46.63144577 89.49582661 -25.25 84.1875 C-20.37250706 83.14274219 -15.97242943 82.70750415 -11 83 C-10.84023682 81.36272949 -10.84023682 81.36272949 -10.67724609 79.69238281 C-9.99948743 74.30369191 -8.58595309 69.15477631 -7.1640625 63.921875 C-6.74403458 62.35013519 -6.74403458 62.35013519 -6.31552124 60.74664307 C-5.42364913 57.41307303 -4.52459491 54.08149336 -3.625 50.75 C-2.73405136 47.43240134 -1.84460776 44.11440378 -0.9559021 40.79620361 C-0.40433275 38.73875831 0.14875983 36.68172048 0.70370483 34.62518311 C4.31300165 23.44809198 4.31300165 23.44809198 6 12 C3.69 11.34 1.38 10.68 -1 10 C-1.95685425 5.78984129 -2.13181214 3.74287627 0 0 Z M15 20 C14.84379684 20.57692093 14.68759369 21.15384186 14.5266571 21.74824524 C12.88809042 27.80005093 11.24938248 33.85181836 9.6105957 39.90356445 C9.00053406 42.1564845 8.39050739 44.40941402 7.78051758 46.66235352 C6.8993453 49.91685489 6.01804363 53.1713212 5.13671875 56.42578125 C4.73340584 57.91553215 4.73340584 57.91553215 4.32194519 59.43537903 C4.06190201 60.39554428 3.80185883 61.35570953 3.53393555 62.3449707 C3.2827597 63.27693268 3.03158386 64.20889465 2.77279663 65.1690979 C2.23899939 67.12449944 1.69315972 69.07663923 1.13760376 71.02597046 C0.86249969 71.99861847 0.58739563 72.97126648 0.30395508 73.97338867 C0.05382156 74.84348068 -0.19631195 75.71357269 -0.45402527 76.61003113 C-1.14847134 79.24133391 -1.14847134 79.24133391 -1 83 C0.32 83.33 1.64 83.66 3 84 C4.4756404 78.50903792 5.95061988 73.01789883 7.42504883 67.52661133 C7.92422662 65.66784139 8.42356921 63.80911571 8.9230957 61.95043945 C9.16310303 61.05736084 9.40311035 60.16428223 9.65039062 59.24414062 C9.89081085 58.34954132 10.13123108 57.45494202 10.37893677 56.53323364 C11.10618083 53.82156361 11.82926375 51.10880505 12.55224609 48.39599609 C13.51917548 44.77322962 14.5087601 41.15767996 15.51416016 37.54541016 C15.98471022 35.82845318 16.45525099 34.11149365 16.92578125 32.39453125 C17.26237007 31.21125496 17.26237007 31.21125496 17.60575867 30.0040741 C18.62316012 26.25585736 19.15607314 23.71021436 18 20 C17.01 20 16.02 20 15 20 Z " fill="#8DC63F" transform="translate(130,0)"/>
<path d="M0 0 C6.51526698 6.2319945 9.22152848 13.08891133 9.5 22 C9.2509783 30.24439702 6.91422744 37.08577256 1 43 C-5.95150601 48.32224679 -13.15017694 50.76291578 -22 50 C-29.5508759 48.63613079 -34.95876791 45.83662648 -40 40 C-45.0411524 32.5636732 -46.90190974 25.96755974 -46 17 C-44.02479377 9.09917509 -39.85848222 1.92016788 -32.7578125 -2.34765625 C-21.44623516 -7.66066985 -10.46302473 -6.88209648 0 0 Z " fill="#8DC63F" transform="translate(148,117)"/>
<path d="M0 0 C5.89499547 4.54204569 9.25362182 9.7561473 11 17 C12.24326402 26.7025862 10.09772294 34.17119659 4.875 42.3125 C-1.10790164 47.9052124 -8.08794726 50.61474096 -16.1875 51.25 C-24.82873366 50.68336173 -30.80716363 48.22222259 -37.0859375 42.1875 C-42.46577165 36.03911812 -44.3411355 29.28772713 -44.21875 21.1796875 C-43.4276476 13.29691711 -39.87327825 6.74557699 -34.1875 1.3125 C-23.92600278 -6.13211563 -10.66349635 -7.41022627 0 0 Z " fill="#0F6CB6" transform="translate(122,208)"/>
</svg>
