<?xml version="1.0" encoding="utf-8" ?><svg xmlns="http://www.w3.org/2000/svg" xmlns:xlink="http://www.w3.org/1999/xlink" width="640" height="640" viewBox="0 0 640 640"><path fill="#016CB1" d="M157.696 269.319C157.105 274.39 155.68 280.383 154.773 285.53C153.496 292.984 152.647 300.505 152.23 308.057C151.83 315.705 152.21 322.835 152.874 330.442C156.126 367.455 170.845 402.532 194.979 430.782C199.921 436.626 205.362 441.949 210.965 447.216C215.901 451.857 222.317 455.59 226.538 460.909C227.654 462.315 228.062 465.13 228.32 466.903C231.987 492.166 250.998 513.254 275.467 520.228C286.082 522.949 300.63 523.159 311.183 520.167C323.066 516.798 335.01 508.642 342.911 499.301C344.391 497.551 347.744 493.288 349.775 492.689C355.933 490.873 362.359 490.525 368.715 489.013C386.98 484.855 404.499 477.921 420.662 468.452C459.684 445.714 490.941 404.347 502.496 360.653C504.417 365.385 503.982 367.021 504.719 372.027C505.214 375.155 505.264 381.488 505.324 384.825C506.489 388.486 505.951 410.739 505.385 414.909C509.705 416.618 523.162 419.855 525.258 423.336C530.947 432.786 526.122 450.474 522.665 459.806C520.605 465.368 515.826 475.399 509.781 476.261C505.892 476.816 494.584 474.257 490.179 473.641C487.039 478.387 483.883 485.685 480.949 490.87C477.048 497.763 473.065 503.659 468.713 510.281C471.929 513.175 478.096 520.48 480.506 523.905C484.926 530.187 476.693 542.435 472.599 547.304C466.573 554.471 451.854 568.67 441.488 565.634C439.097 564.934 429.024 555.65 426.429 553.354C423.618 554.477 415.921 559.953 412.673 561.905C404.953 566.545 397.417 570.245 389.567 574.537C390.403 579.185 391.72 583.964 392.545 588.623C393.131 591.939 393.756 594.949 391.511 597.831C385.632 605.375 371.948 610.027 362.96 611.627C356.803 612.723 345.263 614.082 340.065 610.52C336.514 608.088 332.38 594.781 331.792 590.598C324.014 591.103 316.63 591.142 308.863 591.061C302.195 590.991 295.707 591.264 289.084 590.184C287.379 595.358 284.363 607.301 280.7 610.767C277.532 613.766 267.887 613.379 263.442 612.994C253.074 612.094 236.874 607.854 229.635 599.866C224.545 594.248 229.445 583.354 230.261 575.729L230.32 575.144C227.872 574.142 223.748 571.634 221.179 570.307C211.867 565.499 203.164 560.175 194.403 554.421C188.75 557.534 182.592 566.532 176.118 567.606C171.312 568.404 163.573 563.8 159.859 560.903C149.967 553.189 139.094 542.299 137.266 529.349C140.317 521.364 147.902 516.746 150.109 511.358C150.131 509.407 139.794 494.393 138.126 491.046C135.72 486.217 132.28 480.111 129.686 475.362C124.878 475.982 110.39 479.748 107.403 477.977C94.7563 470.481 87.8666 440.424 92.1343 427.28C93.7578 422.28 108.937 418.526 113.552 416.968C112.987 409.848 113.052 402.093 113.011 394.926C112.973 388.393 112.819 381.298 113.344 374.82C109.217 373.214 94.5092 369.286 92.9753 366.471C85.7908 353.283 94.207 324.471 104.666 314.712C108.958 310.707 122.559 315.301 128.468 316.178C130.56 313.434 133.968 305.38 135.881 302.019C142.262 290.809 149.172 279.028 157.696 269.319Z"/><path fill="#8CC857" d="M345.281 14.7348C350.839 14.1859 367.739 19.2977 373.693 20.8628C386.26 24.0918 398.804 27.4137 411.323 30.8281C427.103 35.0521 443.061 38.8306 458.75 43.3934C460.468 43.897 461.561 44.2345 463.021 45.2371C467.717 48.4628 467.355 55.8761 463.918 59.9239C460.471 63.9838 453.461 60.8426 448.386 60.9937L447.833 61.0126C442.261 64.5584 440.58 75.275 438.895 81.5577L431.756 108.632L416.522 166.235L412.226 182.547C410.931 187.478 409.183 192.895 409.114 197.94C409.711 199.542 416.033 203.149 417.928 204.606C449.999 229.276 471.423 263.587 478.07 303.672C479.528 311.273 479.033 319.219 479.287 326.8C480.23 354.877 471.94 382.27 457.799 406.37C454.911 411.291 450.178 417.13 446.609 421.915C446.737 415.827 449.317 405.404 449.738 397.831C451.554 367.761 443.632 337.906 427.146 312.691C423.978 307.74 420.456 303.025 416.605 298.584C413.653 295.154 408.448 290.096 406.287 286.488C404.507 283.516 405.112 274.95 404.636 271.099C403.382 260.943 400.748 254.078 395.67 245.437C386.627 232.129 376.829 223.638 361.593 218.006C335.315 208.294 306.132 216.967 288.291 238.342C284.57 242.799 280.645 250.602 276.043 253.928C275.918 253.979 275.793 254.029 275.669 254.08C269.013 256.68 262.903 257.997 256.228 260.956C241.044 267.686 228.117 275.989 216.002 287.4C211.509 291.632 206.575 296.075 202.727 300.997C197.647 307.495 193.086 314.667 188.999 321.82C186.047 326.987 184.18 330.762 182.052 336.227C181.191 338.436 178.208 347.111 177.351 348.359C175.311 348.404 174.972 342.701 174.816 341.072C167.533 265.069 220.809 193.252 295.518 178.123C302.572 176.695 311.898 174.801 319.202 174.994C322.598 167.186 323.569 158.308 326.123 150.297C329.164 140.762 331.254 131.394 333.766 121.748C338.441 103.597 343.3 85.4943 348.341 67.4418C350.493 59.7339 352.391 48.3286 356.024 41.7819C355.115 40.22 353.781 37.1273 352.586 36.0506C346.816 30.8527 336.9 32.8801 340.016 21.5161C340.88 18.3686 342.31 16.4524 345.281 14.7348ZM345.877 177.031C348.633 171.826 349.966 164.409 351.455 158.689C352.829 153.409 354.178 148.118 355.577 142.841L369.741 89.8515L375.816 66.4145C376.808 62.5894 378.824 55.559 379.091 51.9367C374.625 49.5946 373.192 49.0718 368.151 48.9329C366.501 52.4463 364.859 58.7994 363.819 62.6648L359.089 80.3868C353.236 101.591 347.632 122.864 342.277 144.199C340.88 149.632 335.195 168.963 335.041 173.167C336.495 175.718 343.072 176.941 345.877 177.031Z"/><path fill="#016CB1" d="M288.425 406.384C316.294 403.826 340.977 424.303 343.611 452.164C346.244 480.026 325.836 504.765 297.981 507.475C270.019 510.196 245.163 489.69 242.519 461.721C239.875 433.751 260.448 408.951 288.425 406.384Z"/><path fill="#8CC857" d="M331.887 230.649C359.322 226.5 384.915 245.406 389.013 272.848C393.111 300.291 374.158 325.849 346.708 329.896C319.33 333.933 293.853 315.04 289.766 287.669C285.679 260.299 304.524 234.787 331.887 230.649Z"/></svg>